<svg width="116" height="58" viewBox="0 0 116 58" fill="none" xmlns="http://www.w3.org/2000/svg">
<g clip-path="url(#clip0_205_7783)">
<path fill-rule="evenodd" clip-rule="evenodd" d="M114.183 35.7335H113.683L105.286 25.5039H105.246V30.4499C105.223 31.6816 105.275 32.9136 105.402 34.1389C105.5 34.8166 106.019 35.0877 107.298 35.1462V35.5953H102.656V35.1462C103.715 35.1063 104.221 34.8166 104.322 34.1389C104.446 32.9134 104.498 31.6816 104.475 30.4499V26.2401C104.475 24.8421 104.457 24.5285 104.107 24.0846C103.758 23.6408 103.217 23.484 102.407 23.4255V22.9764H105.227L113.373 32.7622H113.41V28.1218C113.434 26.8902 113.384 25.6583 113.259 24.4328C113.161 23.7551 112.637 23.484 111.363 23.4255V22.9764H116V23.4255C114.941 23.4654 114.435 23.7551 114.337 24.4328C114.21 25.6581 114.159 26.8901 114.183 28.1218V35.7335ZM86.5843 23.4255L85.9858 23.5026C85.1146 23.6195 85.0007 23.7923 85.2682 24.6481L87.8819 32.9163H87.9296L91.0226 23.173H91.4887L94.9869 32.8977H95.0293C95.8238 30.4499 96.9413 26.3543 97.2723 24.959C97.5371 23.8321 97.4418 23.5983 96.5758 23.5026L96.0144 23.4255V22.9764H100.111V23.4255C98.8347 23.5797 98.6997 23.6594 98.0615 25.4241C97.8893 25.9105 96.4726 30.3729 94.8519 35.7123H94.3223L90.8426 26.2241L90.8028 26.264L87.6515 35.7176H87.1219L83.7746 25.2939C83.245 23.6833 82.9616 23.5478 81.8574 23.4335V22.9843H86.5976V23.4335M73.3329 23.3351C71.0502 23.3351 69.1144 25.2168 69.1144 28.8659C69.1144 32.6133 71.0688 35.2445 73.8811 35.2445C76.2009 35.2445 78.0996 33.4399 78.0996 29.8307C78.0996 25.6368 76.087 23.3272 73.3329 23.3272M79.9851 29.1131C79.9851 33.1529 77.1807 35.8903 73.4865 35.8903C69.7923 35.8903 67.2263 33.0891 67.2263 29.4134C67.2263 26.1497 69.509 22.676 73.8202 22.676C77.1675 22.676 79.9719 25.278 79.9719 29.0998M56.9461 29.4825H58.0689C58.8634 29.4825 59.4804 29.3842 60.0047 28.951C60.8363 28.2918 61.1249 27.3404 61.1249 26.3862C61.1249 24.3504 59.6552 23.5345 58.2119 23.5345C57.8473 23.5087 57.4808 23.541 57.1262 23.6302C57.0123 23.6674 56.9541 23.7657 56.9541 24.1617V29.4772L56.9461 29.4825ZM56.9461 32.7834C56.9461 34.9096 57.0997 35.0345 58.6886 35.1488V35.598H53.5485V35.1488C55.1745 35.0319 55.3281 34.8831 55.3281 32.7834V25.7936C55.3281 23.6674 55.1745 23.5425 53.6253 23.4255V22.9764H58.535C59.7717 22.9764 60.876 23.1518 61.5884 23.6381C61.9975 23.9053 62.3305 24.2745 62.5548 24.7096C62.779 25.1448 62.8867 25.6309 62.8674 26.1205C62.8674 27.7311 61.8796 28.8792 60.3119 29.5171C60.6615 30.1018 61.4533 31.4413 62.0332 32.2944C62.5209 33.0434 63.0644 33.7541 63.6592 34.4206C64.0104 34.9092 64.5259 35.2537 65.1104 35.3907L65.0707 35.7601H64.8059C62.584 35.699 61.8929 35.0213 61.1699 33.9555C60.5715 33.0784 59.7558 31.6433 59.2156 30.7317C59.1066 30.5055 58.9318 30.3179 58.7143 30.1935C58.4968 30.0692 58.2468 30.014 57.9974 30.0353H56.9461V32.7728V32.7834ZM43.6762 29.036V33.2671C43.6762 34.5694 43.941 35.0133 45.3419 34.9947C46.9652 34.9947 48.3396 34.1788 48.3396 32.119C48.3396 29.9928 46.7904 29.0334 44.799 29.0334H43.6762V29.036ZM43.6762 28.4699H44.8943C46.7481 28.4699 47.6802 27.5955 47.6802 26.0062C47.6802 24.8421 47.1982 23.5425 44.9129 23.5425C44.5557 23.5193 44.1972 23.5588 43.8536 23.6594C43.7397 23.6966 43.6815 23.7737 43.6815 24.1617L43.6762 28.4699ZM45.5723 22.9764C46.9652 22.9764 47.757 23.2102 48.3979 23.6594C49.0387 24.1086 49.4015 24.8235 49.4015 25.7856C49.4015 27.4945 47.7967 28.329 46.8699 28.5629V28.6161C48.6309 28.8686 50.2172 29.9184 50.2172 31.8798C50.2172 33.2565 49.5392 34.2292 48.419 34.8671C47.4313 35.3987 46.1946 35.606 44.7249 35.606H40.2812V35.1568C41.9072 35.0399 42.0608 34.891 42.0608 32.7914V25.8015C42.0423 23.6753 41.9258 23.5504 40.3951 23.4335V22.9843H45.5802L45.5723 22.9764Z" fill="#9B9B9B"/>
<mask id="mask0_205_7783" style="mask-type:luminance" maskUnits="userSpaceOnUse" x="-1" y="-1" width="36" height="22">
<path d="M34.0875 -0.0239258H-0.0419922V20.842H34.0875V-0.0239258Z" fill="white"/>
</mask>
<g mask="url(#mask0_205_7783)">
<path fill-rule="evenodd" clip-rule="evenodd" d="M33.6851 12.9139C33.4918 12.7704 31.4395 12.5179 31.119 12.5179C30.7986 12.5179 29.0349 12.5339 28.3517 12.6375C26.9376 12.7966 25.5102 12.7966 24.0961 12.6375C23.5866 12.603 23.0754 12.6745 22.5946 12.8475C22.6991 12.7598 22.799 12.6666 22.8939 12.5684C23.3017 12.1485 23.7572 11.3512 24.5648 10.9552C24.7608 10.8577 24.9541 10.755 25.1448 10.6469C25.8227 10.9871 26.8926 11.2183 28.222 10.5911C30.2054 11.5851 31.3997 10.9127 31.8076 10.5592C32.0556 10.3481 32.2551 10.0855 32.3923 9.78958C32.5295 9.49363 32.601 9.17133 32.602 8.84493C32.6027 8.61829 32.5669 8.39303 32.4961 8.17784C32.2101 7.31141 31.4368 6.77188 30.3431 6.64697C30.2838 6.42002 30.1947 6.20196 30.0783 5.99848C30.1842 5.86205 30.2919 5.72739 30.4014 5.59451C30.4967 5.47491 30.8224 4.93272 29.9485 5.38454L29.7129 5.51477C29.5892 5.39008 29.4515 5.28037 29.3024 5.18787C28.4894 4.69087 27.3878 4.62974 26.257 4.9221C26.14 4.34905 25.8058 3.844 25.3249 3.51348C24.7599 3.20159 24.1028 3.10172 23.4712 3.23176C23.5162 3.1228 23.5585 3.02712 23.5956 2.95004C23.924 2.25903 23.7466 2.08627 23.4023 2.39192C23.013 2.74008 22.7667 2.98725 22.5787 3.18924C21.8796 2.06235 20.9554 1.29959 19.867 1.00989C18.8965 0.770224 17.8726 0.887127 16.9805 1.33945C16.9463 0.980973 16.8853 0.625597 16.7978 0.276351C16.6257 -0.284434 16.4218 0.156756 16.39 0.329509L16.239 1.25972C15.8025 1.01353 15.3215 0.857117 14.8241 0.799619C14.3266 0.742121 13.8228 0.78469 13.3419 0.924842C12.8178 1.09611 12.3384 1.3825 11.9385 1.76318C11.5385 2.14386 11.2282 2.60924 11.0301 3.12546C10.6852 3.00662 10.3308 2.9177 9.97083 2.85968C9.70994 2.52296 9.41632 2.21314 9.09429 1.93478C8.82947 1.69559 8.60438 1.82051 8.76592 2.29093C8.82947 2.47431 8.88244 2.63378 8.93541 2.78793C8.33485 2.80443 7.75367 3.00474 7.26971 3.362C6.67891 3.82543 6.29057 4.50105 6.18661 5.24634L6.08598 5.27026C5.47426 5.41112 4.65068 5.64234 4.13429 6.45827L3.94891 6.34133C2.41033 5.31544 3.12004 6.63369 3.71588 7.21573C1.66885 7.50543 1.09155 8.49411 0.943251 9.07616C0.905896 9.22473 0.887216 9.3774 0.887642 9.53063C0.892108 9.87257 0.978693 10.2084 1.14004 10.5096C1.3014 10.8108 1.53276 11.0685 1.8145 11.2608C2.14937 11.484 2.54383 11.5998 2.94573 11.5932C3.34763 11.5866 3.73806 11.4577 4.06543 11.2236C5.02936 11.5346 6.39052 11.4894 7.36769 10.7718C7.93175 11.3804 8.38458 11.8136 8.63351 12.0608C9.20779 12.5983 9.87684 13.0237 10.6064 13.3153C9.98078 13.0679 9.30466 12.9767 8.63616 13.0495C6.9996 13.278 5.91385 12.9804 5.21474 12.9113C4.06014 12.797 2.87376 12.9963 2.28322 12.9963C1.69268 12.9963 0.773772 13.2913 0.342122 13.3551C-0.0895282 13.4189 -0.0921796 13.7352 0.553971 13.9079C1.20012 14.0807 2.40768 14.1897 2.72282 14.3305C3.99072 14.8533 5.35407 15.1023 6.72419 15.0614C7.59808 14.995 8.47727 15.4228 8.70501 15.4893C9.13931 15.6222 10.2145 15.9172 10.6541 15.9092C10.6533 16.2199 10.6684 16.5303 10.6991 16.8394C10.5388 16.891 10.3814 16.9513 10.2277 17.0202C9.73779 16.7225 7.57954 15.8481 4.9764 16.9351C4.42294 16.7437 3.2551 16.0953 1.65296 16.6242C-0.325211 17.2806 -0.0047861 19.0985 0.649309 19.9304C1.53115 21.0573 3.16506 20.8287 3.63908 20.2626C4.07412 20.5542 4.58632 20.708 5.10942 20.7042C5.63251 20.7004 6.14244 20.5392 6.57324 20.2413C7.10287 20.547 9.63452 21.052 11.5677 20.2626C11.8325 20.4593 12.8918 21.0174 14.2556 20.3264C15.05 20.7942 16.3423 20.8314 17.0096 20.2413C17.2506 20.4486 17.9789 20.7437 19.5254 20.7251C21.3791 20.7038 21.8134 20.4247 22.0756 20.1935C22.4882 20.4281 22.9482 20.5661 23.4214 20.5974C23.8946 20.6287 24.3688 20.5524 24.8085 20.3742C25.5049 20.8128 26.8979 20.7888 27.6447 20.2972C29.0111 20.9191 31.5136 20.6374 32.1465 20.2041C33.2667 19.4228 32.7265 17.8334 31.4898 17.0786C29.0641 15.8507 26.8052 16.8129 26.1935 17.1132C25.4785 16.6295 23.9849 16.3159 22.4304 16.6082C22.4424 16.3975 22.4424 16.1863 22.4304 15.9757C22.4304 15.9517 22.4304 15.9278 22.4304 15.9012C22.7376 15.8082 23.1746 15.476 24.067 15.4175C25.2798 15.3351 28.1372 15.375 29.5672 14.6388C30.3828 14.2216 33.2217 13.6608 33.6004 13.4402C33.9791 13.2196 33.889 13.0495 33.6878 12.9086L33.6851 12.9139ZM23.2752 11.2688C22.2451 12.486 21.726 12.9113 21.5433 12.9033C21.297 12.4784 20.983 12.0968 20.6138 11.7738C20.9845 11.3592 22.5946 10.607 23.3387 10.0436C23.4473 9.96118 23.773 9.75919 23.9134 9.68477C24.1128 9.92432 24.3415 10.1377 24.594 10.32C23.9558 10.6761 23.6062 10.8808 23.2699 11.2688H23.2752ZM8.42695 8.627C8.88835 8.70477 9.36113 8.67986 9.81187 8.55402C10.2626 8.42819 10.6803 8.20449 11.0354 7.89877C11.9358 9.34192 11.9596 10.6495 12.8282 11.5479C11.7319 10.4848 10.7732 10.5034 9.20551 9.65288C8.9407 9.50671 8.53023 9.24359 8.41107 9.18512C8.43017 9.04597 8.4399 8.90567 8.44019 8.7652C8.44019 8.72267 8.44019 8.67217 8.44019 8.62965L8.42695 8.627ZM15.1056 10.2376L15.1294 10.2881C15.1294 10.2881 14.6528 9.56783 14.5998 9.47747C14.4356 9.22764 14.2238 8.9725 13.9854 8.68015C13.6765 8.30452 13.3578 7.93863 13.0295 7.58249C13.832 7.36273 14.5627 6.93465 15.148 6.34133C15.2301 6.40246 15.3122 6.44764 15.3969 6.49814C15.3616 6.70899 15.3245 6.91983 15.2857 7.13068C15.165 7.80471 15.0968 8.48716 15.0818 9.17183C15.0764 9.5266 15.0887 9.88141 15.1189 10.2349L15.1056 10.2376ZM13.7339 9.33927C14.0204 9.72845 14.2857 10.133 14.5283 10.5512C14.105 10.717 13.6996 10.9254 13.3181 11.1731C12.7223 10.5432 12.2456 8.62965 11.9278 8.12203L11.663 7.68881C11.9068 7.74538 12.1572 7.76774 12.4071 7.75525C12.4654 7.8403 12.9924 8.36122 13.7312 9.3499L13.7339 9.33927ZM16.57 10.7612C17.2745 10.7541 17.9733 10.8881 18.6255 11.1554C19.2777 11.4226 19.8702 11.8178 20.3683 12.3178C20.8665 12.8177 21.2602 13.4124 21.5266 14.0669C21.7929 14.7215 21.9264 15.4228 21.9193 16.1298C21.9183 16.3964 21.9006 16.6627 21.8664 16.9271C21.5391 17.0169 21.2208 17.137 20.9157 17.2859C20.1281 16.8563 19.246 16.6312 18.3496 16.6312C17.4532 16.6312 16.5711 16.8563 15.7835 17.2859C14.8779 16.5657 12.8361 16.5072 11.2976 16.866C11.2556 16.6279 11.2291 16.3873 11.2181 16.1458C11.2181 14.7219 11.7817 13.3564 12.7849 12.3496C13.7881 11.3427 15.1487 10.7771 16.5674 10.7771L16.57 10.7612ZM15.7994 8.70939C15.8324 8.10185 15.921 7.49864 16.0642 6.90743C16.2935 7.01883 16.533 7.10783 16.7793 7.17321C17.1123 8.16268 17.2421 9.20966 17.1606 10.2509C16.7289 10.2136 16.2947 10.2136 15.863 10.2509C15.765 10.0728 15.7518 9.25954 15.7835 8.72533L15.7994 8.70939ZM20.5423 8.81835C20.2404 9.4695 20.3966 10.3147 19.6234 11.0801C19.2423 10.8612 18.8478 10.6668 18.4423 10.498C18.5641 9.46152 19.5254 8.1672 20.1557 7.63299C20.362 7.85739 20.6046 8.0452 20.8733 8.18847C20.7533 8.394 20.6429 8.60396 20.5423 8.81835ZM21.3606 8.61105C21.3844 8.56853 21.4135 8.51271 21.4453 8.45158C22.0349 8.64045 22.658 8.70026 23.2725 8.627C23.3443 8.85033 23.4402 9.06511 23.5585 9.26751C23.2514 9.41369 22.3218 10.0648 20.9607 10.8143C20.7055 10.9501 20.4718 11.123 20.2669 11.3273C20.4487 11.0928 20.5991 10.8355 20.7144 10.5618C20.9501 9.94524 20.8865 9.4509 21.3685 8.60839L21.3606 8.61105ZM18.0689 9.40837C17.9633 9.66258 17.8748 9.92363 17.8041 10.1898C17.918 9.39243 17.7008 8.20973 17.4678 7.19181C18.2125 7.20046 18.9453 7.00372 19.5863 6.62305C19.6415 6.77316 19.7079 6.91887 19.7849 7.05893C19.393 7.40709 18.4449 8.45158 18.0769 9.39508L18.0689 9.40837ZM7.09228 10.2323C6.29783 10.8781 4.97376 10.9392 4.15018 10.6256C4.0997 10.6038 4.04433 10.5961 3.98983 10.6031C3.93534 10.6101 3.88371 10.6316 3.84034 10.6655C3.61497 10.8567 3.33389 10.9694 3.03927 10.9867C2.74466 11.0039 2.45242 10.9248 2.20643 10.7612C1.96912 10.6046 1.78449 10.3798 1.67674 10.1161C1.569 9.85237 1.54317 9.56215 1.60265 9.28346C1.79332 8.52069 2.70163 8.00508 4.09192 7.86688C4.1621 7.85958 4.22807 7.82978 4.28006 7.78191C4.33205 7.73405 4.36729 7.67064 4.38057 7.6011C4.62949 6.32538 5.45572 6.13403 6.25546 5.9533L6.59973 5.87091C6.67717 5.85191 6.74477 5.80462 6.78934 5.73827C6.8339 5.67192 6.85221 5.59129 6.84071 5.51212C6.86157 5.20072 6.94843 4.89738 7.09548 4.62238C7.24253 4.34738 7.44639 4.10705 7.69342 3.91747C8.48787 3.30884 9.6557 3.2929 11.0989 3.87494C11.1406 3.89355 11.1857 3.90317 11.2314 3.90317C11.277 3.90317 11.3221 3.89355 11.3638 3.87494C11.4048 3.85742 11.4417 3.83127 11.4718 3.79826C11.502 3.76526 11.5247 3.72615 11.5385 3.68358C11.6836 3.19974 11.9431 2.75828 12.295 2.39685C12.6468 2.03542 13.0805 1.76473 13.5591 1.60788C14.0563 1.46693 14.5797 1.44668 15.0862 1.54881C15.5927 1.65093 16.0677 1.87251 16.4721 2.19524C16.5272 2.23389 16.5928 2.25462 16.6601 2.25462C16.7273 2.25462 16.793 2.23389 16.8481 2.19524C17.2665 1.91701 17.7379 1.72894 18.2325 1.64294C18.7271 1.55693 19.234 1.57486 19.7214 1.69559C20.7806 1.97465 21.6678 2.75869 22.3007 3.98922C22.337 4.05906 22.397 4.11354 22.4698 4.14279C22.5427 4.17205 22.6236 4.17414 22.6979 4.14869C23.6857 3.8085 24.488 3.80053 25.0203 4.12477C25.228 4.26726 25.4017 4.45409 25.529 4.67189C25.6563 4.88969 25.734 5.13306 25.7565 5.38454C25.7633 5.43231 25.7805 5.478 25.8069 5.51836C25.8333 5.55873 25.8681 5.59279 25.9091 5.61814C25.95 5.64349 25.996 5.65952 26.0437 5.66508C26.0915 5.67064 26.1399 5.6656 26.1855 5.65032C27.2448 5.29949 28.2855 5.34999 29.0005 5.78852C29.2243 5.91849 29.4162 6.09727 29.562 6.31163C29.7077 6.52599 29.8036 6.77047 29.8426 7.02703C29.8562 7.09923 29.8937 7.16474 29.9489 7.21296C30.0042 7.26118 30.074 7.2893 30.1472 7.2928C31.0608 7.34861 31.7122 7.75526 31.9267 8.41172C32.0187 8.70801 32.0209 9.02501 31.9333 9.3226C31.8456 9.62019 31.6719 9.88498 31.4342 10.0834C30.743 10.6681 29.6467 10.6309 28.4312 9.97713C28.3847 9.95081 28.3322 9.93699 28.2789 9.93699C28.2255 9.93699 28.1731 9.95081 28.1266 9.97713C27.1786 10.4662 26.2729 10.5087 25.4573 10.0755C24.4933 9.57581 23.9346 8.59776 23.8684 8.09279C23.8535 8.00756 23.8056 7.93172 23.7351 7.8819C23.6646 7.83209 23.5773 7.81235 23.4923 7.82701C22.8171 7.93598 20.5794 8.12734 20.1106 5.96659C20.1012 5.91349 20.0782 5.86377 20.0438 5.8223C20.0095 5.78083 19.965 5.74904 19.9147 5.73005C19.814 5.69019 19.7002 5.76726 19.6101 5.82839C18.1563 6.79847 16.721 6.72936 15.3466 5.62108C15.2866 5.56599 15.2081 5.53543 15.1268 5.53543C15.0454 5.53543 14.967 5.56599 14.907 5.62108C13.3393 7.21573 12.0549 7.09879 11.4273 6.84364C11.357 6.81371 11.2784 6.80956 11.2053 6.83191C11.1322 6.85425 11.0692 6.90169 11.0274 6.9659C10.421 7.93067 9.11548 8.13 8.20716 7.83764C8.15695 7.81521 8.10183 7.80612 8.04711 7.81124C7.99238 7.81636 7.93989 7.83552 7.89467 7.86688C7.85001 7.90159 7.81576 7.94799 7.79567 8.00097C7.77558 8.05396 7.77044 8.11147 7.7808 8.1672C7.91321 9.06021 7.68282 9.76185 7.10287 10.219L7.09228 10.2323ZM7.84966 10.5326C8.01879 10.2881 8.15004 10.0192 8.23894 9.73527C8.32368 9.78577 8.38988 9.8283 8.42695 9.85487C8.70148 10.0385 8.98521 10.208 9.27701 10.3625C10.6355 11.003 11.4882 11.1598 12.4151 11.912C12.0767 12.2701 11.7767 12.663 11.52 13.084C9.57625 12.5525 8.05886 10.8037 7.84701 10.5273L7.84966 10.5326ZM8.85861 14.878C8.66794 14.8116 7.561 14.4076 6.90161 14.4554C5.5484 14.5538 3.8271 14.1259 2.97439 13.7883C2.76254 13.7059 0.898236 13.5412 2.70958 13.5412C3.30541 13.5412 4.03365 13.3737 5.23857 13.5412C6.4828 13.7055 7.74145 13.7296 8.99101 13.6129C9.33617 13.5675 9.68698 13.5946 10.0211 13.6925C10.3553 13.7904 10.6655 13.957 10.9321 14.1817C10.8284 14.5558 10.7514 14.9368 10.7017 15.3219C10.2251 15.3219 9.34587 15.0561 8.84801 14.8727L8.85861 14.878ZM4.28259 19.8108C3.46166 19.2208 2.9029 18.1311 2.33089 18.3198C2.09256 18.3969 2.06607 18.8274 2.39445 18.8354C2.61954 18.8354 3.02471 19.4387 3.25775 19.7045C3.19684 20.0234 2.3812 20.3609 1.5232 19.8427C1.20809 19.6382 0.983577 19.3198 0.89629 18.9536C0.809002 18.5873 0.865654 18.2014 1.05448 17.876C1.34313 17.3683 2.16406 17.0786 3.14917 17.1105C5.05585 17.153 5.59078 19.3271 6.03832 19.7337C6.03832 19.949 5.01082 20.3344 4.27728 19.8081L4.28259 19.8108ZM7.04991 19.7816C6.32961 19.46 5.76026 17.7989 5.54841 17.5863C5.46366 17.5012 6.82217 17.0069 8.19657 17.1265C10.5455 17.3285 10.5534 18.7902 11.1307 19.5184C11.3558 19.7762 9.23994 20.3769 7.05785 19.7683L7.04991 19.7816ZM14.7296 19.9304C14.325 19.5304 13.9489 19.1023 13.6041 18.6494C13.3658 18.3597 12.9262 18.0965 12.7408 18.3597C12.6296 18.5191 12.7408 18.6999 12.9447 18.8141C13.2719 19.1067 13.5587 19.4419 13.7974 19.8108C13.7551 20.0367 12.7011 20.4168 12.0841 19.6646C11.7663 19.2739 11.1493 18.1151 10.7785 17.6181C12.1185 17.1398 13.71 16.9617 14.8381 17.4959C15.9212 18.0062 16.1093 19.1836 16.5409 19.7576C16.6468 20.143 15.3916 20.3769 14.7322 19.9277L14.7296 19.9304ZM17.6796 19.9012C16.962 19.5796 16.39 17.9158 16.1781 17.7032C16.0934 17.6182 17.4519 17.1265 18.8263 17.2461C21.1778 17.4454 21.1831 18.9125 21.7604 19.638C21.9908 19.8958 19.8723 20.5071 17.6982 19.8879L17.6796 19.9012ZM29.4295 17.1663C31.7784 17.3657 32.3425 18.9178 32.1042 19.4228C31.8976 19.8639 30.4596 20.438 28.2776 19.8214C27.5573 19.4998 26.9879 17.8361 26.7761 17.6235C26.6913 17.5384 28.0472 17.0467 29.4242 17.1663H29.4295ZM25.4387 17.5358C26.5245 18.046 26.7628 19.2181 27.1389 19.7948C27.2448 20.1802 25.9286 20.2998 25.3302 19.9676C25.0998 19.8374 24.443 18.9789 24.2047 18.6866C23.9664 18.3942 23.593 18.2108 23.4102 18.4739C23.299 18.6334 23.4314 18.8221 23.638 18.9364C23.9028 19.0746 24.3212 19.7098 24.398 19.848C24.3556 20.0739 23.4261 20.3795 22.7429 19.6779C22.3933 19.3271 21.7684 18.0992 21.5274 17.6181C22.8647 17.1398 24.3106 17.0016 25.4361 17.5331L25.4387 17.5358ZM31.744 13.4216C30.8833 13.5878 30.0388 13.8297 29.2203 14.1445C27.8803 14.676 25.2295 14.8142 24.1517 14.7956C23.1189 14.7797 22.7694 15.2368 22.4066 15.173C22.352 14.6988 22.2345 14.234 22.057 13.791C22.7219 13.486 23.4445 13.3283 24.1756 13.3286C25.3143 13.3711 27.3957 13.4588 28.4682 13.2913C28.9979 13.2116 30.9151 13.201 31.2064 13.201C31.4272 13.2065 31.6475 13.226 31.8658 13.2594C32.3213 13.3285 31.9585 13.3737 31.7308 13.4216H31.744Z" fill="#9B9B9B"/>
</g>
<path fill-rule="evenodd" clip-rule="evenodd" d="M17.1895 16.1697C17.0809 16.4886 15.9554 16.5896 15.7489 16.1697C15.6668 16.0049 15.5529 15.5797 15.7065 15.6674C15.9554 15.8135 16.8611 15.7099 17.0306 15.6674C17.2 15.6248 17.0835 15.4175 17.1762 15.4441C17.2689 15.4707 17.2874 15.8614 17.1762 16.1644M15.3913 14.3039C15.3873 14.386 15.3671 14.4664 15.332 14.5407C15.2969 14.6149 15.2476 14.6814 15.1868 14.7365C15.1261 14.7915 15.0551 14.834 14.9779 14.8615C14.9008 14.889 14.819 14.9009 14.7373 14.8966C14.6555 14.8925 14.5753 14.8723 14.5014 14.8371C14.4274 14.8019 14.3611 14.7523 14.3063 14.6914C14.2514 14.6304 14.2091 14.5591 14.1817 14.4817C14.1543 14.4043 14.1424 14.3222 14.1467 14.2402V14.171C14.0938 14.0887 13.813 13.9983 13.3973 14.2508C13.1881 14.381 12.955 14.2907 13.3178 13.985C13.6131 13.695 13.9855 13.4966 14.3903 13.4136C14.9284 13.3822 15.4676 13.4535 15.9792 13.6236C16.1169 13.6794 15.9792 14.3544 15.9422 14.3465C15.7636 14.2769 15.5717 14.2487 15.3808 14.2641V14.3146M31.4313 9.48013C31.3836 9.67148 30.9175 9.68211 30.9334 9.48013C31.0049 8.54991 30.5468 8.4755 29.935 8.48081C29.7047 8.48081 29.7205 7.98647 29.8953 7.94926C30.7189 7.7579 31.7093 8.36122 31.4286 9.47481M28.8758 7.69412C28.2588 6.5566 27.263 6.55926 26.4315 6.87819C26.2462 6.95261 26.0767 6.47687 26.3733 6.30678C27.1677 5.84699 28.8149 5.92938 29.3233 7.39645C29.4107 7.64628 29.0797 8.06886 28.8758 7.69146M24.8479 5.75928C24.5037 4.85565 23.8522 4.89286 23.0763 5.14003C22.7188 5.25697 22.8115 4.66429 22.9227 4.62177C23.6668 4.35599 24.9327 4.23905 25.2716 5.48819C25.3696 5.83636 24.9406 6.0038 24.8479 5.75397M21.4053 4.53672C21.2915 4.61911 21.2226 4.43306 21.1405 4.31081C19.9197 2.37331 17.7111 2.8836 17.118 3.77926C16.9988 3.96264 16.6757 3.4683 16.8319 3.2105C17.3616 2.3361 20.1713 1.52018 21.5986 4.00783C21.7522 4.2736 21.5483 4.43307 21.3868 4.53938M15.7621 3.261C14.393 2.31484 13.3152 3.07496 12.7432 3.758C12.4784 4.08224 12.1844 3.54538 12.301 3.35668C12.7935 2.57264 14.483 1.36868 15.9792 2.6949C16.1487 2.84108 15.9475 3.38592 15.7594 3.261M10.1983 4.73073C8.71269 4.14603 7.96591 5.27823 7.72493 6.16858C7.69315 6.29083 7.1953 6.24299 7.26415 5.86559C7.43629 4.95132 8.32341 3.61979 10.3625 4.13805C10.6114 4.20184 10.4658 4.83704 10.1957 4.73073M6.5465 6.98185C5.70968 7.07487 5.4634 7.48416 5.31511 7.95723C5.2542 8.1353 4.78547 8.00773 4.85697 7.65957C5.07942 6.62305 6.19959 6.37056 6.60476 6.45827C6.74246 6.48485 6.70009 6.96856 6.5465 6.98982M4.21612 8.85024C3.64412 8.85024 3.18333 8.85024 2.78081 9.30205C2.37829 9.75387 2.45509 10.0276 2.37565 10.0994C2.2962 10.1711 1.96254 10.0117 1.96784 9.77779C1.99167 8.67483 3.32104 8.24427 4.10755 8.33198C4.40679 8.36653 4.48624 8.8343 4.21877 8.8343" fill="#9B9B9B"/>
<mask id="mask1_205_7783" style="mask-type:luminance" maskUnits="userSpaceOnUse" x="-1" y="13" width="35" height="46">
<path d="M33.2533 13.3101H-0.0419922V58.0213H33.2533V13.3101Z" fill="white"/>
</mask>
<g mask="url(#mask1_205_7783)">
<path fill-rule="evenodd" clip-rule="evenodd" d="M19.388 35.4677H32.2554V23.755H19.388V35.4677ZM0.89853 35.4677H13.7818V23.755H0.895879L0.89853 35.4677ZM13.7818 56.3948C10.469 55.4221 7.25147 54.1118 5.20179 52.1823C4.49077 51.5167 3.86056 50.7691 3.32425 49.9551H6.60796V50.4096H8.13595V49.9578H11.8248V43.7014H11.0304V42.5639C10.2359 42.7553 8.92775 42.3167 8.34516 42.3167C7.99718 42.3015 7.65384 42.4014 7.36798 42.6011C7.08139 42.4008 6.73703 42.3009 6.38816 42.3167C5.80557 42.3167 4.50003 42.7579 3.70293 42.5639V43.7014H2.90848V49.2827C1.6559 47.0768 1.05477 44.4376 0.922362 41.2005L0.895879 40.7035H13.7818V56.3948ZM4.36762 48.6874V43.2895C4.82575 43.3692 5.60961 43.0529 6.412 43.0237C6.51687 43.0058 6.62465 43.0183 6.7227 43.0597C6.82074 43.1011 6.90497 43.1698 6.96547 43.2576V48.69C6.96547 48.69 6.50203 48.3658 5.4613 48.6634C4.66686 48.8947 4.36762 48.6634 4.36762 48.6634V48.6874ZM7.77845 48.706V43.2629C7.83917 43.1753 7.92342 43.1069 8.0214 43.0654C8.11938 43.024 8.22707 43.0114 8.33192 43.029C9.12637 43.0529 9.92081 43.3719 10.3789 43.2948V48.6794C10.3789 48.6794 10.0876 48.9026 9.28525 48.6794C8.24452 48.3817 7.7811 48.706 7.7811 48.706H7.77845ZM18.7233 56.6207L16.5915 57.1523L14.4545 56.5995V39.9965H0.895879V36.1853H14.4439V23.755H18.7127V36.1853H32.2527V39.9965H18.7154V56.6075L18.7233 56.6207ZM30.3381 49.3465V43.7014H29.5437V42.5639C28.7492 42.7553 27.441 42.3167 26.8558 42.3167C26.5078 42.3015 26.1645 42.4014 25.8786 42.6011C25.5926 42.3997 25.2478 42.2997 24.8988 42.3167C24.3162 42.3167 23.0107 42.7579 22.2136 42.5639V43.7014H21.4191V49.9578H25.108V50.4096H26.636V49.9578H29.9541C29.3991 50.7841 28.7454 51.5392 28.0077 52.2062C25.831 54.2049 22.6161 55.462 19.3721 56.4055V40.7248H32.2395L32.2633 41.2563C32.0859 44.7831 31.5245 47.3027 30.3381 49.3465ZM28.8896 43.2789V48.6634C28.8896 48.6634 28.6009 48.8867 27.7959 48.6634C26.7552 48.3658 26.2917 48.69 26.2917 48.69V43.2629C26.2917 43.2629 26.4109 43.0157 26.8452 43.029C27.6396 43.0529 28.4341 43.3719 28.8896 43.2948V43.2789ZM25.4788 43.2496V48.682C25.4788 48.682 25.0153 48.3578 23.9746 48.6555C23.1801 48.8867 22.8809 48.6555 22.8809 48.6555V43.2895C23.339 43.3692 24.1229 43.0529 24.9253 43.0237C25.0301 43.0061 25.1378 43.0187 25.2358 43.0601C25.3338 43.1015 25.418 43.17 25.4788 43.2576V43.2496ZM0.109375 22.9551V40.3101C0.109375 46.0376 1.53408 50.0056 4.58476 52.8016C7.63545 55.5975 12.1479 56.9716 16.5836 58.024C21.1384 56.945 25.5211 55.5975 28.5798 52.8016C31.6384 50.0056 33.0472 46.0482 33.0472 40.3101V22.9657L0.109375 22.9551ZM19.8355 14.3918C19.5522 14.1579 19.1841 14.0569 19.0411 14.1579V14.2057C19.0508 14.2888 19.0438 14.3729 19.0206 14.4531C18.9973 14.5334 18.9583 14.6082 18.9057 14.673C18.8531 14.7378 18.7881 14.7914 18.7145 14.8305C18.6409 14.8697 18.5603 14.8936 18.4773 14.9009C18.3944 14.9082 18.3108 14.8987 18.2316 14.873C18.1523 14.8473 18.079 14.8059 18.016 14.7512C17.953 14.6965 17.9016 14.6297 17.8648 14.5548C17.828 14.4798 17.8065 14.3982 17.8017 14.3147V14.2881C17.5793 14.2164 17.2218 14.3413 17.1715 14.3227C17.1212 14.3041 16.9914 13.6742 17.19 13.5918C17.7196 13.3712 19.4568 13.2649 19.96 14.2403C20.0182 14.3572 19.9812 14.5061 19.8329 14.3918" fill="#9B9B9B"/>
</g>
<path fill-rule="evenodd" clip-rule="evenodd" d="M29.5508 26.8219V25.6924C28.7563 25.8811 27.4455 25.4452 26.8629 25.4452C26.5143 25.4286 26.17 25.5276 25.8831 25.7269C25.5985 25.521 25.2539 25.4154 24.9033 25.4266C24.3207 25.4266 23.0151 25.8678 22.2154 25.6738V26.8113H21.4209V33.0649H25.1072V33.5301H26.6352V33.0649H30.3214V26.8219H29.5269H29.5508ZM25.3773 31.8052C25.3773 31.8052 24.9138 31.4783 23.8758 31.7759C23.0813 32.0045 22.7794 31.7759 22.7794 31.7759V26.4073C23.2402 26.487 24.0241 26.1708 24.8265 26.1415C25.2581 26.1282 25.3773 26.3754 25.3773 26.3754V31.8052ZM28.7908 31.7839C28.7908 31.7839 28.4995 32.0045 27.6971 31.7839C26.6563 31.4863 26.1929 31.8132 26.1929 31.8132V26.3807C26.2539 26.2934 26.3381 26.2251 26.436 26.1837C26.534 26.1423 26.6415 26.1296 26.7464 26.1468C27.5408 26.1708 28.3353 26.487 28.7908 26.4126V31.8052V31.7839ZM11.0269 26.8139V25.6924C10.2324 25.8811 8.92425 25.4452 8.34166 25.4452C7.99398 25.4292 7.65068 25.5281 7.36449 25.7269C7.07757 25.5276 6.73324 25.4286 6.38467 25.4452C5.80208 25.4452 4.49654 25.8864 3.69679 25.6924V26.8299H2.90234V33.0836H6.59123V33.5487H8.11921V33.0836H11.8055V26.8219H11.011L11.0269 26.8139ZM6.95403 31.8052C6.95403 31.8052 6.4906 31.4783 5.44987 31.7759C4.65542 32.0045 4.35618 31.7759 4.35618 31.7759V26.4073C4.81696 26.487 5.60082 26.1708 6.40056 26.1415C6.83221 26.1282 6.95403 26.3754 6.95403 26.3754V31.8052ZM10.3675 31.7839C10.3675 31.7839 10.0762 32.0045 9.27382 31.7839C8.23309 31.4863 7.76966 31.8132 7.76966 31.8132V26.3807C7.83038 26.2931 7.91463 26.2247 8.01261 26.1833C8.11059 26.1419 8.21828 26.1292 8.32313 26.1468C9.11758 26.1708 9.91202 26.487 10.3702 26.4126L10.3675 31.7839Z" fill="#9B9B9B"/>
</g>
<defs>
<clipPath id="clip0_205_7783">
<rect width="116" height="58" fill="white"/>
</clipPath>
</defs>
</svg>
