<svg width="79" height="50" viewBox="0 0 79 50" fill="none" xmlns="http://www.w3.org/2000/svg">
<g clip-path="url(#clip0_205_7818)">
<path d="M61.1086 13.0365V5.35172H57.5556V5.89673H58.5583V13.0365H57.2722V13.5379H62.3946V13.0365H61.1086ZM10.5717 0.392047H10.1139C10.0921 0.784461 9.88505 0.958866 9.4927 0.958866C8.6971 0.958866 7.55274 -0.000366211 6.19042 -0.000366211C2.3323 -0.000366211 0 3.80386 0 7.15028C0 10.4967 2.22332 13.8431 5.93975 13.8431C8.19576 13.8431 9.04585 12.7749 9.64528 12.7749C10.0376 12.7749 10.1139 13.1237 10.1139 13.5488H10.6262V8.93794H10.1139L10.0049 9.58106C9.74337 11.1071 8.55542 13.3526 6.13592 13.3526C3.98889 13.3526 3.1606 11.4995 3.1606 6.92137C3.1606 2.12521 4.28316 0.511951 6.19042 0.511951C8.33744 0.511951 9.80876 2.92093 10.1139 4.8285H10.5717V0.392047ZM17.1653 11.336C17.1326 12.3171 16.5768 13.1237 15.7049 13.1237C14.4407 13.1237 14.3862 12.0554 14.3862 11.2488C14.3862 10.2678 14.4952 9.61376 15.7049 9.48296L17.1653 9.33035V11.3251V11.336ZM20.5548 11.9464C20.5548 12.4261 20.2387 12.982 20.0317 12.982C19.6938 12.982 19.6175 12.6332 19.6175 12.0554V7.7934C19.6175 5.67873 17.634 5.15551 15.7267 5.15551C13.8194 5.15551 12.5116 6.06024 12.5116 7.10668C12.5116 7.7607 12.8822 8.31662 13.7214 8.31662C14.4298 8.31662 14.8548 7.8479 14.8548 7.20478C14.8548 6.25645 13.8739 6.24555 13.8739 6.22375C13.8739 5.79863 14.9638 5.66783 15.5959 5.66783C16.9909 5.66783 17.1762 6.18014 17.1762 7.29198V8.85073L15.3562 9.00334C13.6669 9.13414 11.8359 9.58106 11.8359 11.5104C11.8359 13.1237 13.2854 13.7777 14.7131 13.7777C15.4324 13.7777 16.7185 13.5052 17.198 12.6114C17.5359 13.3853 18.2225 13.7777 19.0508 13.7777C20.2605 13.7777 21.0343 13.0583 21.0343 11.9573H20.5657L20.5548 11.9464ZM63.103 44.931V37.2462H59.2667V37.7912H60.5418V44.931H59.2667V45.4324H64.3781V44.931H63.103ZM14.942 17.1459V16.6227H10.7133L7.63993 25.4193L4.65371 16.6118H0V17.1459H1.25334V27.7411C1.25334 28.5368 1.05717 29.1581 0 29.1581V29.6704H3.20419V29.1581H3.1497C2.14703 29.1581 1.75468 29.0818 1.75468 27.5776V17.0478H1.78737L6.22311 29.6595H6.72445L11.0512 17.2658H11.0839V29.1472H9.84145V29.6595H14.9311V29.1472H13.7214V17.1459H14.9311H14.942ZM17.9064 24.6781V23.4354C17.9064 22.1928 18.4405 21.8004 19.0726 21.8004C19.9663 21.8004 20.2387 22.4108 20.2387 23.4354V24.6781H17.9064ZM17.9064 25.1795H23.0288C23.007 23.1738 21.1542 21.2445 19.2034 21.2881C17.0127 21.2881 15.1273 23.1847 15.1273 25.6809C15.1273 28.1771 16.8929 29.8885 19.2688 29.8885C21.6447 29.8885 22.68 28.4823 23.0942 26.6401H22.5928C22.1896 28.3624 21.285 29.3434 19.8355 29.3434C18.1135 29.3434 17.9282 27.9918 17.9282 26.7273V25.1686L17.9064 25.1795ZM39.2241 40.44V39.1974C39.2241 37.9547 39.7582 37.5623 40.3903 37.5623C41.284 37.5623 41.5564 38.1727 41.5564 39.1974V40.44H39.2241ZM39.2241 40.9414H44.3465C44.3247 38.9358 42.4719 37.0064 40.5211 37.05C38.3304 37.05 36.445 38.9467 36.445 41.4428C36.445 43.939 38.2106 45.6504 40.5865 45.6504C42.9624 45.6504 43.9977 44.2442 44.4119 42.4021H43.9105C43.5073 44.1243 42.6027 45.1054 41.1532 45.1054C39.4312 45.1054 39.2459 43.7537 39.2459 42.4893V40.9305L39.2241 40.9414Z" fill="#9B9B9B"/>
<path d="M23.0605 16.633V17.1017H24.3465V29.1357H23.0605V29.6698H28.1829V29.1357H26.8968V16.633H23.0605ZM28.5425 16.633V17.1017H29.8176V29.1357H28.5425V29.6698H33.654V29.1357H32.3788V16.633H28.5425ZM39.5392 27.4135C39.5392 28.8087 38.9616 29.3755 38.0134 29.3755C37.0652 29.3755 36.4876 28.7978 36.4876 27.4135V23.7618C36.4876 22.3666 37.0652 21.7998 38.0134 21.7998C38.9616 21.7998 39.5392 22.3775 39.5392 23.7618V27.4135ZM42.4273 25.5822C42.4273 23.0424 40.4656 21.2765 38.0134 21.2765C35.5612 21.2765 33.5995 23.0424 33.5995 25.5822C33.5995 28.122 35.5612 29.8878 38.0134 29.8878C40.4656 29.8878 42.4273 28.122 42.4273 25.5822ZM-0.000976562 32.8527H1.29596V41.0934C1.29596 43.9711 3.27951 45.7152 6.30932 45.7152C9.72059 45.7152 11.2028 43.9166 11.2028 41.1915V34.1499C11.2028 33.0707 11.4971 32.8636 12.1728 32.8636H12.5433V32.3622H9.28465V32.8636H9.51352C10.4617 32.8636 10.5925 33.1471 10.5925 34.2262V41.3877C10.5925 43.9166 9.02308 45.0612 7.44278 45.0612C4.73992 45.0612 4.19499 43.2408 4.03151 40.8645V32.8636H5.25216V32.3622H-0.000976562V32.8636V32.8527ZM32.139 45.6389H32.6404L35.3868 39.1423C35.9427 37.9323 36.2369 37.7797 36.662 37.7579H36.8255V37.2456H33.9264V37.7579H34.2752C34.8092 37.7579 35.0599 37.7252 35.0599 38.2048C35.0599 38.4991 34.9618 38.7934 34.7438 39.3276L33.4796 42.2925L31.4633 37.747H32.4878V37.2347H27.8341V37.747H28.706L32.1173 45.6171L32.139 45.6389ZM52.8028 45.6389H53.2388C53.326 45.3446 53.5221 45.192 53.8927 45.192C54.3722 45.192 54.9499 45.6389 55.9852 45.6389C57.7508 45.6389 58.9497 44.1128 58.9497 42.5977C58.9497 40.3304 57.3911 40.1669 55.4076 39.8835C54.3722 39.7309 53.7837 39.5892 53.7837 38.7716C53.7837 37.8996 54.5466 37.529 55.5493 37.529C56.9443 37.529 57.4783 38.4555 57.947 39.6546H58.3829V37.0167H57.9579C57.9579 37.2347 57.7617 37.42 57.4129 37.42C56.8135 37.42 56.334 37.0167 55.4839 37.0167C53.6311 37.0167 52.7156 38.5972 52.7156 39.7854C52.7156 42.1835 54.5357 42.3797 55.9416 42.5541C57.2822 42.7176 57.7617 42.8048 57.7617 43.655C57.7617 44.636 56.9443 45.083 55.9416 45.083C54.5357 45.083 53.5657 43.8621 53.2279 42.5105H52.7919V45.628L52.8028 45.6389ZM27.1693 44.9304V37.2456H23.333V37.7906H24.619V44.9304H23.333V45.4318H28.4553V44.9304H27.1693ZM24.619 34.684C24.619 35.3925 25.1857 35.9593 25.8941 35.9593C26.6026 35.9593 27.1693 35.3925 27.1693 34.684C27.1693 33.9755 26.6026 33.4087 25.8941 33.4087C25.1857 33.4087 24.619 33.9755 24.619 34.684ZM60.5408 34.684C60.5408 35.3925 61.1076 35.9593 61.816 35.9593C62.5244 35.9593 63.0911 35.3925 63.0911 34.684C63.0911 33.9755 62.5244 33.4087 61.816 33.4087C61.1076 33.4087 60.5408 33.9755 60.5408 34.684ZM42.8633 8.54491V7.30227C42.8633 6.05963 43.3973 5.66721 44.0294 5.66721C44.9231 5.66721 45.1956 6.27764 45.1956 7.30227V8.54491H42.8633ZM42.8633 9.04633H47.9856C47.9638 7.04066 46.1111 5.1113 44.1602 5.1549C41.9696 5.1549 40.0841 7.05156 40.0841 9.54775C40.0841 12.0439 41.8497 13.7553 44.2256 13.7553C46.6015 13.7553 47.6369 12.3491 48.051 10.507H47.5497C47.1464 12.2292 46.2419 13.2103 44.7923 13.2103C43.0704 13.2103 42.8851 11.8586 42.8851 10.5942V9.03543L42.8633 9.04633ZM65.26 8.54491V7.30227C65.26 6.05963 65.794 5.66721 66.4261 5.66721C67.0909 5.66721 67.5923 6.04873 67.5923 7.30227V8.54491H65.26ZM65.26 9.04633H70.3823C70.3605 7.04066 68.5077 5.1113 66.5569 5.1549C64.3663 5.1549 62.4808 7.05156 62.4808 9.54775C62.4808 12.0439 64.2464 13.7553 66.6223 13.7553C68.9982 13.7553 70.0335 12.3491 70.4477 10.507H69.9464C69.5431 12.2292 68.6385 13.2103 67.189 13.2103C65.467 13.2103 65.2818 11.8586 65.2818 10.5942V9.03543L65.26 9.04633ZM21.6873 44.9304V39.9162C21.6873 37.9105 20.8372 36.9731 19.0716 36.9731C17.8292 36.9731 16.5649 37.6816 16.0636 38.7607V37.2565H12.2273V37.7579H13.5024V44.9195H12.2273V45.4209H17.1643V44.9195H16.0745V40.0252C16.238 39.3385 17.1099 37.747 18.1234 37.747C18.7991 37.747 19.137 37.9759 19.137 39.2295V44.9304H18.0798V45.4318H22.9733V44.9304H21.6982H21.6873ZM51.8873 29.1684V24.1542C51.8873 22.1486 51.0373 21.2111 49.2717 21.2111C48.0292 21.2111 46.765 21.9197 46.2637 22.9988V21.4946H42.4273V21.996H43.7025V29.1575H42.4273V29.6589H47.3644V29.1575H46.2746V24.2632C46.438 23.5765 47.3099 21.9851 48.3235 21.9851C48.9992 21.9851 49.3371 22.214 49.3371 23.4675V29.1684H48.2799V29.6698H53.1734V29.1684H51.8982H51.8873ZM38.7872 13.0359V8.0326C38.7872 6.02693 37.9371 5.0895 36.1715 5.0895C34.9291 5.0895 33.6649 5.79802 33.1635 6.87716V5.3729H29.3272V5.87432H30.6023V13.0359H29.3272V13.5373H34.2643V13.0359H33.1744V8.1416C33.3379 7.45488 34.2098 5.86342 35.2234 5.86342C35.8991 5.86342 36.2369 6.09233 36.2369 7.34587V13.0468H35.1798V13.5482H40.0732V13.0468H38.7981L38.7872 13.0359ZM58.5573 2.82222C58.5573 3.53074 59.124 4.09756 59.8324 4.09756C60.5409 4.09756 61.1076 3.53074 61.1076 2.82222C61.1076 2.11369 60.5409 1.54688 59.8324 1.54688C59.124 1.54688 58.5573 2.11369 58.5573 2.82222ZM75.5482 37.2456V37.7797C76.3438 37.7797 76.6817 37.856 76.6817 38.2048C76.6817 38.4991 76.5836 38.7934 76.3656 39.3276L75.1014 42.2925L73.0852 37.7688H74.1423V37.2347H67.7448V33.2561H67.407C67.407 35.2181 66.0664 37.2456 64.2028 37.2456V37.7797H65.1837V43.5242C65.1837 45.2901 66.6986 45.6389 67.2217 45.6389C68.3552 45.6389 69.1181 45.1811 69.6848 44.2109L69.2924 43.9929C69.0745 44.3308 68.7693 44.7668 68.3116 44.7668C67.941 44.7668 67.7448 44.5052 67.7448 43.8948V37.7797H70.3278L73.7173 45.5953L72.5402 48.364C72.5402 48.364 72.4639 48.4512 72.3985 48.4512C72.3332 48.4512 72.2787 48.4076 72.2569 48.3422C72.1829 48.0754 72.0234 47.8402 71.8029 47.6729C71.5824 47.5055 71.313 47.4151 71.0362 47.4156C70.3278 47.4156 69.7611 47.9825 69.7611 48.691C69.7611 49.1924 70.0444 49.6175 70.4586 49.8246C70.4695 49.8246 70.4804 49.8355 70.5022 49.8464C70.524 49.8573 70.5567 49.8682 70.5785 49.8791C70.7202 49.9336 70.8727 49.9772 71.0471 49.9772C72.1261 50.0644 72.671 49.2687 73.0525 48.4621C73.1397 48.2768 73.2159 48.0915 73.2922 47.9171C73.4557 47.5246 73.7391 46.8488 74.0769 46.064C74.4148 45.2792 74.4039 45.3119 74.4039 45.3119L77.0087 39.1423C77.5645 37.9323 77.7825 37.7797 78.4582 37.7797V37.2456H75.5591H75.5482ZM27.4526 5.06769C26.2647 5.06769 25.3601 5.88522 25.0005 6.81175H24.9678V5.39471H21.1641V5.91792H22.4393V13.0577H21.1641V13.57H26.7115V13.0577H25.0005V9.05723C25.0005 7.86909 25.3165 6.63735 26.1012 5.97243C26.1448 5.93972 26.2102 5.92882 26.2647 5.96152C26.3301 5.99423 26.3519 6.05963 26.3519 6.11413C26.2974 6.25584 26.2647 6.43024 26.2538 6.64825C26.232 7.32407 26.7878 7.85819 27.518 7.85819C28.4117 7.85819 28.924 7.20417 28.924 6.50654C28.924 5.61271 28.3354 5.07859 27.4635 5.07859L27.4526 5.06769ZM55.3749 5.67812C55.3749 5.67812 55.4621 5.64541 55.4839 5.67812C55.5057 5.71082 55.5166 5.74352 55.4839 5.77622C55.3749 5.97243 55.3313 6.20133 55.4185 6.46294C55.5057 6.72455 55.7237 6.90986 55.9743 6.96436C56.5084 7.08426 56.9661 6.69185 56.9661 6.19043C56.9661 5.86342 56.759 5.61271 56.5302 5.47101C56.3013 5.3293 56.0179 5.253 55.7128 5.253C55.2223 5.253 54.7101 5.51461 54.3504 5.83072C54.2632 5.76532 54.1761 5.71082 54.0889 5.65631C53.5766 5.362 52.9118 5.1658 52.029 5.1658C50.4705 5.1658 48.803 6.19043 48.803 7.86909C48.803 8.89372 49.3589 9.68945 50.3397 10.1364V10.1691C49.6204 10.2563 48.487 10.7577 48.487 12.3055C48.487 13.2321 48.912 13.9406 49.6967 14.1586V14.1913C48.9556 14.3984 48.1055 15.1396 48.1055 16.0335C48.1055 17.4069 49.7185 18.4643 51.7784 18.4643C54.3613 18.4643 56.0397 16.7202 56.0397 14.4529C56.0397 12.6544 55.146 11.8368 53.3369 11.8695H50.2526C49.7839 11.8695 49.4788 11.8477 49.4788 11.3463C49.4788 10.8885 50.1872 10.3871 50.8956 10.3871C51.0155 10.3871 51.2225 10.4852 51.277 10.4961C51.5059 10.5724 51.7457 10.6051 52.0399 10.6051C53.6311 10.6051 55.3422 9.70035 55.3422 7.93449C55.3422 7.38947 55.1024 6.64825 54.6665 6.17953C54.6447 6.14683 54.6447 6.10323 54.6665 6.08143C54.8409 5.93972 55.0479 5.81982 55.146 5.76532C55.2223 5.72172 55.2877 5.68902 55.364 5.66721L55.3749 5.67812ZM52.9118 14.2131C54.7646 14.2131 55.255 14.2894 55.255 15.423C55.255 16.7747 53.5984 18.0173 51.7239 18.0173C50.0564 18.0173 49.2499 16.9927 49.2172 16.0989C49.2172 15.2813 49.6204 14.7472 50.1218 14.2022H52.9118V14.2131ZM53.2279 7.87999C53.2279 10.0383 52.7265 10.1037 52.0617 10.1037C51.3206 10.1037 50.9283 9.96196 50.9283 7.81459C50.9283 6.31034 51.0917 5.66721 52.0617 5.66721C52.9336 5.66721 53.217 5.72172 53.2279 7.85819V7.87999ZM50.8411 36.9186C49.6531 36.9186 48.7485 37.7361 48.3889 38.6626H48.3562V37.2456H44.5526V37.7688H45.8277V44.9086H44.5526V45.4209H50.1V44.9086H48.3889V40.9081C48.3889 39.72 48.705 38.4991 49.4788 37.8233C49.5223 37.7906 49.5877 37.7797 49.6422 37.8124C49.7076 37.8451 49.7294 37.9105 49.7294 37.965C49.6749 38.1176 49.6422 38.2811 49.6313 38.4991C49.6095 39.175 50.1654 39.7091 50.8956 39.7091C51.7893 39.7091 52.3015 39.0551 52.3015 38.3574C52.3015 37.4636 51.713 36.9295 50.8411 36.9295V36.9186Z" fill="#9B9B9B"/>
</g>
<defs>
<clipPath id="clip0_205_7818">
<rect width="78.4483" height="50" fill="white"/>
</clipPath>
</defs>
</svg>
