<svg width="110" height="24" viewBox="0 0 110 24" fill="none" xmlns="http://www.w3.org/2000/svg">
<path d="M104.016 19.3141C104.016 17.7045 105.321 16.3987 106.927 16.3987C108.534 16.3987 109.837 17.7045 109.837 19.3141C109.837 20.9237 108.534 22.2288 106.927 22.2288C105.321 22.2288 104.016 20.9237 104.016 19.3141Z" fill="#9B9B9B"/>
<path d="M11.1739 11.5936C11.1739 9.74692 10.8177 8.37687 10.1051 7.48428C9.39149 6.59268 8.31089 6.14726 6.85769 6.14726H5.31211V17.4397H6.49476C8.10866 17.4397 9.29131 16.9604 10.0444 15.9988C10.7966 15.0389 11.1739 13.5701 11.1739 11.5936ZM16.6863 11.4011C16.6863 14.7654 15.7834 17.3579 13.9773 19.1775C12.1713 20.9979 9.63254 21.9081 6.35986 21.9081H0.000976562V1.74876H6.80387C9.95926 1.74876 12.3954 2.57641 14.112 4.2307C15.828 5.88587 16.6863 8.27492 16.6863 11.4013M34.3005 21.908H39.3605V1.66408H34.3005V21.908ZM46.4689 14.3569C46.4689 15.6476 46.6373 16.6321 46.9735 17.3086C47.3104 17.9861 47.8747 18.3244 48.6681 18.3244C49.4533 18.3244 50.0084 17.9861 50.3319 17.3086C50.6553 16.6321 50.8162 15.6476 50.8162 14.3569C50.8162 13.0729 50.6528 12.1044 50.3252 11.4508C49.9966 10.7951 49.4364 10.467 48.6421 10.467C47.8654 10.467 47.3104 10.7936 46.9734 11.4431C46.6374 12.0935 46.4689 13.0644 46.4689 14.3569ZM55.9663 14.3569C55.9663 16.816 55.3227 18.7344 54.0322 20.1094C52.7427 21.4853 50.9375 22.1737 48.6168 22.1737C46.3914 22.1737 44.6199 21.4702 43.3049 20.063C41.9884 18.6559 41.3305 16.7544 41.3305 14.357C41.3305 11.9054 41.975 10.0005 43.2654 8.64236C44.5558 7.2841 46.3652 6.6051 48.695 6.6051C50.1347 6.6051 51.4084 6.91977 52.5118 7.54823C53.6161 8.17657 54.4687 9.07686 55.0676 10.2495C55.6673 11.4203 55.9663 12.7904 55.9663 14.3569ZM57.9758 21.908H63.0366V6.87084H57.9758V21.908ZM57.9756 5.05189H63.0365V1.66333H57.9756V5.05189ZM73.2896 18.0727C73.9728 18.0727 74.7865 17.8988 75.7358 17.5538V21.3374C75.0534 21.6377 74.4048 21.8527 73.7882 21.9802C73.1717 22.1093 72.4481 22.1734 71.6201 22.1734C69.921 22.1734 68.6963 21.7457 67.944 20.8919C67.1951 20.0383 66.8195 18.7273 66.8195 16.9583V10.7593H65.0472V6.87221H66.8195V3.03202L71.9191 2.14377V6.87208H75.1479V10.7595H71.9191V16.6123C71.9191 17.5859 72.3766 18.0727 73.2896 18.0727ZM85.0022 18.0727C85.6854 18.0727 86.4992 17.8988 87.4484 17.5538V21.3374C86.767 21.6377 86.1175 21.8527 85.5009 21.9802C84.8834 22.1093 84.1625 22.1734 83.3327 22.1734C81.6338 22.1734 80.409 21.7457 79.6583 20.8919C78.9079 20.0383 78.5322 18.7273 78.5322 16.9583V10.7593H76.7591V6.87221H78.5322V2.9739L83.6308 2.14377V6.87208H86.8613V10.7595H83.6309V16.6123C83.6309 17.5859 84.0882 18.0727 85.0022 18.0727ZM93.834 12.525C93.903 11.7017 94.1381 11.0985 94.539 10.713C94.9417 10.3283 95.4387 10.136 96.0334 10.136C96.682 10.136 97.1975 10.3519 97.5799 10.7872C97.9648 11.2199 98.1653 11.7996 98.1813 12.525H93.834ZM100.97 8.37786C99.7674 7.19693 98.0609 6.60548 95.8532 6.60548C93.5324 6.60548 91.7466 7.2846 90.4948 8.64273C89.244 10.001 88.6182 11.9496 88.6182 14.489C88.6182 16.948 89.2946 18.8444 90.644 20.1756C91.9943 21.5068 93.8904 22.1732 96.3323 22.1732C97.5049 22.1732 98.5141 22.0932 99.3597 21.9337C100.2 21.776 101.014 21.4908 101.804 21.0791L101.026 17.6903C100.452 17.925 99.9066 18.1054 99.391 18.2243C98.6464 18.3974 97.8293 18.4842 96.9396 18.4842C95.9643 18.4842 95.1944 18.2455 94.63 17.768C94.0656 17.2897 93.7649 16.63 93.7304 15.7898H102.776V13.4808C102.776 11.2597 102.174 9.55805 100.97 8.37786ZM23.4023 12.525C23.4713 11.7017 23.7064 11.0985 24.1073 10.713C24.509 10.3283 25.0069 10.136 25.6025 10.136C26.2494 10.136 26.765 10.3519 27.1482 10.7872C27.5331 11.2199 27.7327 11.7996 27.7505 12.525H23.4023ZM30.5394 8.37786C29.3357 7.19693 27.6299 6.60548 25.4214 6.60548C23.0998 6.60548 21.3149 7.2846 20.064 8.64273C18.8131 10.001 18.1865 11.9496 18.1865 14.489C18.1865 16.948 18.862 18.8444 20.2131 20.1756C21.5626 21.5068 23.4587 22.1732 25.9007 22.1732C27.0732 22.1732 28.0824 22.0932 28.928 21.9337C29.7687 21.776 30.5825 21.4908 31.3726 21.0791L30.5942 17.6903C30.0205 17.925 29.4747 18.1054 28.96 18.2243C28.2138 18.3974 27.3976 18.4842 26.5079 18.4842C25.5333 18.4842 24.7627 18.2455 24.1983 17.768C23.633 17.2897 23.3332 16.63 23.2987 15.7898H32.3438V13.4808C32.3438 11.2597 31.7424 9.55805 30.5394 8.37786Z" fill="#9B9B9B"/>
</svg>
