<svg width="110" height="24" viewBox="0 0 110 24" fill="none" xmlns="http://www.w3.org/2000/svg">
<g clip-path="url(#clip0_205_7838)">
<path d="M108.64 11.2597C109.482 10.8415 110.036 10.0169 109.998 9.03753C110.036 7.73251 108.957 6.65382 107.653 6.69188C107.28 6.65382 106.951 6.72686 106.665 6.81534L93.5789 12.0005C92.7065 12.4171 92.0995 13.2736 92.0975 14.2226C92.0995 15.6023 93.1787 16.6815 94.5666 16.6917C94.9094 16.6795 95.2459 16.5954 95.5542 16.4448L108.64 11.2597ZM0 7.80298V19.5312H8.64185V16.8152H3.45674V14.9634H8.39494V12.2474H3.45674V10.519H8.64185V7.80298H0ZM22.3454 7.80298H25.6786V19.5312H22.3454V7.80298ZM19.1355 13.6054C19.884 12.9711 20.3428 12.0756 20.3701 11.0128C20.3428 9.29627 18.9025 7.85596 17.1603 7.80298H10.864V19.5312H14.3208V10.519H16.0492C16.6489 10.482 17.1222 10.9393 17.1603 11.5066C17.1427 11.7956 17.02 12.0681 16.8153 12.2728C16.6106 12.4775 16.3381 12.6002 16.0492 12.6177H14.3208V15.2103H16.0492L17.6541 19.5312H20.9874L19.1355 14.4696C19.1031 14.3682 19.0553 14.3039 19.0121 14.2226C18.8624 14.111 18.76 13.8147 19.1355 13.6054ZM69.5052 7.80298V19.5312H72.9619V13.235L76.6656 19.5312H80.3692V7.80298H77.0359V13.9757L73.4558 7.80298H69.5052ZM62.5917 10.0252C63.923 10.0823 64.9816 11.6702 64.9374 13.6054C64.9816 15.5873 63.923 17.1748 62.5917 17.1856C61.3114 17.1748 60.2533 15.5873 60.2461 13.6054C60.2533 11.6702 61.3114 10.0823 62.5917 10.0252V7.43261C59.4534 7.44547 56.8886 10.2134 56.9128 13.6054C56.8886 17.0436 59.4534 19.8121 62.5917 19.7781C65.781 19.8121 68.3463 17.0436 68.3941 13.6054C68.3463 10.2134 65.781 7.44547 62.5917 7.43261V10.0252ZM26.9132 13.4819C26.9317 18.9654 32.0114 19.737 32.9625 19.7781C33.8118 19.737 35.1621 19.6727 36.9131 19.1608V16.4448C33.7475 17.808 30.4682 17.0364 30.4934 13.4819C30.4682 9.96344 33.9404 8.93465 36.6661 10.8894V8.04989C35.1621 7.32716 33.7475 7.45576 32.839 7.43261C31.9471 7.45576 26.9317 8.03446 26.9132 13.4819ZM45.9253 10.519V8.17335C44.8872 7.68107 43.2633 7.64866 42.3451 7.67953C41.3343 7.64866 38.8271 8.03446 38.2711 9.90172C37.7983 11.7638 38.377 13.7571 40.3698 14.3461C42.3631 15.0431 43.6491 15.4289 43.2093 16.5683C42.8775 17.6151 40.2412 17.2936 38.6414 16.6917L38.2711 19.1608C40.3698 19.6727 42.4917 19.8013 44.0735 19.4078C45.7067 18.9011 46.6069 17.6151 46.7895 16.3214C46.9926 14.9145 46.5426 13.4356 45.0611 12.8646C43.4562 12.2782 43.0704 12.2782 41.9747 11.7535C40.8847 11.2494 41.2705 9.89914 42.9624 9.90172C43.9063 9.83485 45.0637 10.1563 45.9253 10.519ZM108.64 4.59315C109.482 4.15437 110.036 3.33031 109.998 2.37096C110.036 1.04536 108.957 -0.0333294 107.653 0.0253118C107.28 -0.0333294 106.951 0.0397149 106.665 0.148767L93.5789 5.33388C92.7065 5.72996 92.0995 6.58643 92.0975 7.55607C92.0995 8.9151 93.1787 9.99431 94.5666 10.0252C94.9063 9.99314 95.2393 9.90989 95.5542 9.77826L108.64 4.59315ZM55.5548 10.519V8.17335C54.4673 7.68107 52.8439 7.64866 51.8511 7.67953C50.9149 7.64866 48.4072 8.03446 47.9006 9.90172C47.3784 11.7638 47.9571 13.7571 49.9993 14.3461C51.9437 15.0431 53.2297 15.4289 52.8388 16.5683C52.4581 17.6151 49.8218 17.2936 48.2709 16.6917L47.9006 19.1608C49.9504 19.6727 52.0723 19.8013 53.7029 19.4078C55.2873 18.9011 56.1875 17.6151 56.419 16.3214C56.5733 14.9145 56.1232 13.4356 54.5671 12.8646C53.0368 12.2782 52.651 12.2782 51.6042 11.7535C50.4648 11.2494 50.8506 9.89914 52.5918 9.90172C53.4869 9.83485 54.6443 10.1563 55.5548 10.519ZM108.64 17.9263C109.482 17.5287 110.036 16.7041 109.998 15.7041C110.036 14.4197 108.957 13.341 107.653 13.3585C107.28 13.341 106.951 13.4135 106.665 13.6054L93.5789 18.7905C92.7065 19.1043 92.0995 19.9602 92.0975 21.0127C92.0995 22.2894 93.1787 23.3681 94.5666 23.3583C94.9071 23.3681 95.2826 23.2719 95.5542 23.1114L108.64 17.9263Z" fill="#9B9B9B"/>
</g>
<defs>
<clipPath id="clip0_205_7838">
<rect width="110" height="23.364" fill="white"/>
</clipPath>
</defs>
</svg>
