<svg preserveAspectRatio="none" width="100%" height="100%" overflow="visible" style="display: block;" viewBox="0 0 253.854 237.906" fill="none" xmlns="http://www.w3.org/2000/svg">
<g id="Group 6">
<circle id="Ellipse 6" cx="226.13" cy="210.189" r="27.716" fill="url(#paint0_linear_187_7609)"/>
<path id="Rectangle 17" d="M184.676 20.2959C190.604 7.89452 203.127 9.37957e-05 216.873 9.37957e-05H253.854L149.836 217.61C143.908 230.011 131.385 237.906 117.639 237.906H80.6582L184.676 20.2959Z" fill="url(#paint1_linear_187_7609)"/>
<path id="Union" d="M59.4767 108.231C59.4767 109.498 61.1931 109.887 61.7394 108.744L104.018 20.2958C109.946 7.89443 122.469 0 136.215 0H173.196L69.394 217.158C63.3342 229.836 50.532 237.906 36.4807 237.906C16.3331 237.906 0.000175402 221.573 0.000175402 201.426V35.6859C0.000175402 15.9772 15.9773 0 35.6861 0H59.4767V108.231Z" fill="url(#paint2_linear_187_7609)"/>
</g>
<defs>
<linearGradient id="paint0_linear_187_7609" x1="226.13" y1="-68.9345" x2="226.13" y2="237.905" gradientUnits="userSpaceOnUse">
<stop offset="0.223524" stop-color="#D0E5FF"/>
<stop offset="1" stop-color="#222222"/>
</linearGradient>
<linearGradient id="paint1_linear_187_7609" x1="167.256" y1="9.37957e-05" x2="167.256" y2="237.906" gradientUnits="userSpaceOnUse">
<stop offset="0.223524" stop-color="#D0E5FF"/>
<stop offset="1" stop-color="#222222"/>
</linearGradient>
<linearGradient id="paint2_linear_187_7609" x1="86.5979" y1="0" x2="86.5979" y2="237.906" gradientUnits="userSpaceOnUse">
<stop offset="0.223524" stop-color="#D0E5FF"/>
<stop offset="1" stop-color="#222222"/>
</linearGradient>
</defs>
</svg>
