<svg width="110" height="38" viewBox="0 0 110 38" fill="none" xmlns="http://www.w3.org/2000/svg">
<path d="M46.8108 19.0797C46.8108 24.2441 42.7707 28.0496 37.8126 28.0496C32.8545 28.0496 28.8145 24.2441 28.8145 19.0797C28.8145 13.879 32.8545 10.1099 37.8126 10.1099C42.7707 10.1099 46.8108 13.879 46.8108 19.0797ZM42.8718 19.0797C42.8718 15.8525 40.5303 13.6444 37.8126 13.6444C35.095 13.6444 32.7534 15.8525 32.7534 19.0797C32.7534 22.2746 35.095 24.515 37.8126 24.515C40.5303 24.515 42.8718 22.2705 42.8718 19.0797Z" fill="#9B9B9B"/>
<path d="M66.2229 19.0797C66.2229 24.2441 62.1828 28.0496 57.2247 28.0496C52.2666 28.0496 48.2266 24.2441 48.2266 19.0797C48.2266 13.883 52.2666 10.1099 57.2247 10.1099C62.1828 10.1099 66.2229 13.879 66.2229 19.0797ZM62.2839 19.0797C62.2839 15.8525 59.9424 13.6444 57.2247 13.6444C54.5071 13.6444 52.1655 15.8525 52.1655 19.0797C52.1655 22.2746 54.5071 24.515 57.2247 24.515C59.9424 24.515 62.2839 22.2705 62.2839 19.0797Z" fill="#9B9B9B"/>
<path d="M84.8255 10.6518V26.7555C84.8255 33.3797 80.9189 36.0852 76.3005 36.0852C71.953 36.0852 69.3365 33.1775 68.3497 30.7996L71.7792 29.372C72.3898 30.8319 73.8861 32.5547 76.2964 32.5547C79.2527 32.5547 81.0847 30.7308 81.0847 27.2974V26.0073H80.9472C80.0655 27.0952 78.367 28.0455 76.2236 28.0455C71.7387 28.0455 67.6299 24.1389 67.6299 19.1121C67.6299 14.0488 71.7387 10.1099 76.2236 10.1099C78.363 10.1099 80.0615 11.0602 80.9472 12.1157H81.0847V10.6558H84.8255V10.6518ZM81.3637 19.1121C81.3637 15.9536 79.2567 13.6444 76.5755 13.6444C73.8578 13.6444 71.581 15.9536 71.581 19.1121C71.581 22.2382 73.8578 24.515 76.5755 24.515C79.2567 24.515 81.3637 22.2382 81.3637 19.1121Z" fill="#9B9B9B"/>
<path d="M90.9933 1.21313V27.4999H87.1514V1.21313H90.9933Z" fill="#9B9B9B"/>
<path d="M105.965 22.0323L109.022 24.0705C108.035 25.5305 105.657 28.0459 101.549 28.0459C96.453 28.0459 92.6475 24.1069 92.6475 19.0761C92.6475 13.7419 96.4853 10.1062 101.108 10.1062C105.763 10.1062 108.039 13.8106 108.783 15.8125L109.192 16.8316L97.2011 21.7977C98.1192 23.5974 99.5467 24.5154 101.549 24.5154C103.554 24.5154 104.946 23.5286 105.965 22.0323ZM96.5541 18.8051L104.57 15.4768C104.129 14.3566 102.802 13.5761 101.241 13.5761C99.2394 13.5761 96.453 15.3433 96.5541 18.8051Z" fill="#9B9B9B"/>
<path d="M14.2716 16.7466V12.941H27.0955C27.2209 13.6043 27.2856 14.3888 27.2856 15.2381C27.2856 18.0932 26.5051 21.6238 23.9896 24.1392C21.5429 26.687 18.4168 28.0458 14.2757 28.0458C6.59992 28.0458 0.145508 21.7936 0.145508 14.1179C0.145508 6.44215 6.59992 0.189941 14.2757 0.189941C18.522 0.189941 21.547 1.85612 23.8198 4.02781L21.1345 6.7131C19.5047 5.18443 17.2966 3.99546 14.2716 3.99546C8.66646 3.99546 4.28264 8.51274 4.28264 14.1179C4.28264 19.723 8.66646 24.2403 14.2716 24.2403C17.9073 24.2403 19.9779 22.7804 21.3043 21.4539C22.3801 20.3782 23.0878 18.8414 23.3668 16.7425L14.2716 16.7466Z" fill="#9B9B9B"/>
</svg>
