<svg width="116" height="50" viewBox="0 0 116 50" fill="none" xmlns="http://www.w3.org/2000/svg">
<path fill-rule="evenodd" clip-rule="evenodd" d="M21.946 6.10803C22.2238 6.10803 22.5004 6.1132 22.7757 6.12344L29.4548 32.8874L31.0956 32.478L24.5531 6.26129C25.8413 6.41377 27.0953 6.67783 28.3052 7.04353L34.4523 31.6759L36.0931 31.2665L30.2169 7.72003C38.2378 10.9859 43.892 18.8596 43.892 28.054C43.892 40.1745 34.0664 50 21.946 50C9.82555 50 0 40.1745 0 28.054C0 22.6374 1.96231 17.6792 5.21482 13.8514L11.0928 37.4304L12.7081 37.0266L9.06098 22.3496L12.38 21.5244L16.065 36.2266L17.6804 35.7975L11.0079 9.02389C12.1274 8.37903 13.3092 7.8301 14.542 7.38836C14.4502 7.9148 14.4345 8.46253 14.4375 8.98727C14.438 9.0673 14.4381 9.14733 14.438 9.22736C14.4374 9.61841 14.4349 10.008 14.4826 10.3968C14.4952 10.4967 14.5051 10.5968 14.5142 10.6971C14.5576 11.181 14.6065 11.6625 14.6848 12.1423C14.6942 12.2 14.7035 12.2577 14.7126 12.3154C14.741 12.4945 14.7697 12.6735 14.7991 12.8524C14.8105 12.9219 14.8219 12.9913 14.8331 13.0608C14.9603 13.8497 15.1009 14.6365 15.2717 15.4173C15.3168 15.6234 15.3596 15.8299 15.4015 16.0367C15.5319 16.6791 15.6695 17.3197 15.8247 17.9565C15.8735 18.1557 15.9208 18.355 15.9645 18.5554C16.0298 18.8557 16.1012 19.154 16.1765 19.452C16.2326 19.6741 16.2892 19.896 16.339 20.1196C16.3875 20.3398 16.4409 20.5581 16.4979 20.7763C16.5942 21.1444 16.6832 21.5139 16.7695 21.8846C16.8082 22.0508 16.8477 22.2168 16.8878 22.3827C16.8953 22.4139 16.9027 22.4442 16.91 22.4745C16.9245 22.5342 16.9389 22.5939 16.9534 22.6536C16.9874 22.7939 17.0212 22.9342 17.0549 23.0745C17.0614 23.1017 17.0677 23.128 17.0741 23.1543C17.1034 23.2762 17.1328 23.398 17.1614 23.5201C17.2308 23.8183 17.3052 24.1151 17.3817 24.4116C17.46 24.7149 17.5372 25.0185 17.6128 25.3226C17.6217 25.3582 17.6306 25.3939 17.6394 25.4296C17.6752 25.5732 17.711 25.7168 17.7465 25.8605C17.8414 26.2442 17.9369 26.6274 18.0482 27.0067C18.0761 27.1012 18.1026 27.196 18.1287 27.2909C18.5941 28.9889 19.1081 30.7604 19.966 32.3082C19.9825 32.3378 19.9825 32.3378 19.9987 32.3669C20.5721 33.4039 21.318 34.4771 22.4975 34.8656C23.2015 35.08 23.9084 35.0299 24.5671 34.6974C25.2899 34.3153 25.6931 33.6064 25.9369 32.8531C25.9431 32.8336 25.9492 32.8148 25.9553 32.7959C26.4007 31.4643 26.307 29.8067 26.102 28.4395C26.0859 28.3341 26.0715 28.2286 26.0579 28.1228C25.9815 27.5313 25.8905 26.9451 25.7693 26.361C25.7589 26.3108 25.7486 26.2607 25.7383 26.2105C25.7079 26.0617 25.6769 25.913 25.6455 25.7643C25.6393 25.7351 25.6332 25.7067 25.6272 25.6783C25.6051 25.574 25.5828 25.4697 25.5603 25.3655C25.5526 25.3299 25.545 25.2943 25.5373 25.2587C25.4839 25.0083 25.4229 24.7625 25.3496 24.5173C25.2217 24.5326 25.099 24.5587 24.974 24.5896C24.9359 24.5992 24.9359 24.5992 24.8986 24.6086C24.845 24.622 24.7914 24.6353 24.7378 24.6487C24.654 24.6698 24.5702 24.6908 24.4864 24.7117C24.4315 24.7254 24.3765 24.739 24.3216 24.7528C24.2947 24.7595 24.2685 24.7661 24.2424 24.7727C24.0703 24.8154 23.9016 24.8623 23.7342 24.9211C23.7319 24.9868 23.7338 25.0452 23.747 25.1097C24.0546 26.2535 24.2632 27.4228 24.4056 28.598C24.4091 28.6265 24.4124 28.6542 24.4157 28.6819C24.4301 28.8018 24.4438 28.9218 24.4551 29.0421C24.4588 29.0819 24.4624 29.1217 24.4662 29.1614C24.512 29.59 24.5211 30.0151 24.5214 30.446C24.5214 30.4919 24.5214 30.4919 24.5214 30.537C24.5215 30.6252 24.5215 30.7134 24.5212 30.8016C24.5211 30.8299 24.521 30.8574 24.5209 30.8848C24.5204 31.3208 24.4774 31.7707 24.3618 32.1925L24.34 32.2659C24.2542 32.5659 24.146 32.8801 23.9156 33.102C23.6757 33.2853 23.4175 33.2946 23.1285 33.2755C22.7512 33.2202 22.44 32.9133 22.2034 32.6345C22.1918 32.6207 22.1806 32.6074 22.1694 32.594C21.1787 31.436 20.6648 29.8073 20.2195 28.3693C20.1965 28.2952 20.1734 28.2212 20.1495 28.1474C20.0537 27.8556 19.9622 27.5638 19.8836 27.2669C19.8345 27.0803 19.7841 26.8945 19.7293 26.7096C19.6608 26.4795 19.597 26.2491 19.5397 26.0159C19.5099 25.8925 19.4801 25.7692 19.4455 25.647C19.3846 25.4369 19.3286 25.2262 19.276 25.0139C19.2665 24.9755 19.257 24.9372 19.2475 24.8988C19.0922 24.2746 18.939 23.6499 18.7955 23.0229C18.7276 22.7261 18.6581 22.4298 18.5808 22.1353C18.4814 21.7583 18.3872 21.38 18.3024 20.9994C18.2424 20.7299 18.1771 20.4622 18.1073 20.195C18.029 19.8953 17.9563 19.5947 17.8878 19.2927C17.861 19.1743 17.8336 19.0562 17.8057 18.9381C17.7979 18.9053 17.7979 18.9052 17.7902 18.8731C17.7642 18.7633 17.7378 18.6536 17.7102 18.5442C17.6231 18.2029 17.5423 17.8609 17.4668 17.517C17.4223 17.3142 17.3775 17.1115 17.3304 16.9092C17.3254 16.8878 17.3206 16.867 17.3157 16.8463C17.3059 16.8044 17.2961 16.7625 17.2863 16.7205C17.2077 16.3841 17.1312 16.0477 17.0646 15.7086C17.0336 15.5478 17.0024 15.3872 16.9672 15.2272C16.8922 14.887 16.8231 14.5462 16.7588 14.2039C16.7534 14.1748 16.7481 14.1467 16.7428 14.1185C16.6718 13.7416 16.6019 13.3648 16.5425 12.9859C16.5211 12.8453 16.5004 12.7049 16.4726 12.5654C16.4267 12.3436 16.3899 12.1225 16.3594 11.8982C16.3567 11.8786 16.3541 11.8596 16.3516 11.8406C16.3072 11.5156 16.2634 11.1905 16.2302 10.8641C16.2228 10.7882 16.2155 10.7124 16.2077 10.6366C16.1543 10.1267 16.1302 9.61976 16.1292 9.10691C16.1292 9.07632 16.1292 9.04661 16.1292 9.01692C16.1277 8.55385 16.1299 8.08851 16.2291 7.63388C16.2368 7.60181 16.2368 7.6018 16.2443 7.57036C16.2878 7.38477 16.3392 7.21406 16.4265 7.04388L16.4652 6.97565C16.5074 6.89978 16.5502 6.82926 16.6048 6.76257C16.9274 6.68189 17.2529 6.60833 17.581 6.54211C17.8091 6.57831 18.0348 6.7376 18.1874 6.90092L18.2319 6.95041C18.6583 7.404 18.9718 7.91415 19.2302 8.47929C19.2614 8.54849 19.2927 8.61767 19.3245 8.68661C19.4696 9.00096 19.6005 9.31975 19.7217 9.64397C19.729 9.66354 19.7361 9.68254 19.7432 9.70155C19.825 9.91964 19.9021 10.1378 19.9668 10.3616C19.9942 10.4585 20.0221 10.5545 20.0555 10.6495C20.21 11.0625 20.3207 11.4894 20.4294 11.9163C20.5054 12.2154 20.5878 12.5116 20.6802 12.806C20.7495 12.8088 20.8099 12.8053 20.8781 12.7917C20.9051 12.7847 20.9312 12.778 20.9574 12.7713C21.003 12.7597 21.003 12.7597 21.0477 12.7483C21.0964 12.7357 21.1452 12.7231 21.1939 12.7106C21.28 12.6886 21.3661 12.6665 21.4522 12.6443C21.5413 12.6213 21.6304 12.5984 21.7196 12.5755C21.9116 12.5264 22.1036 12.477 22.2956 12.4274C22.2741 12.2909 22.2541 12.1541 22.2209 12.0198C22.2124 11.9879 22.2041 11.9569 22.1958 11.9259C22.1816 11.8723 22.1673 11.8188 22.1528 11.7652C22.1427 11.7277 22.1326 11.6901 22.1225 11.6526C22.052 11.3891 21.98 11.126 21.9039 10.8641C21.8914 10.8215 21.879 10.7789 21.8665 10.7364C21.7893 10.4694 21.7092 10.2038 21.6215 9.94002C21.6122 9.912 21.6122 9.912 21.603 9.88453C21.2011 8.67864 20.7292 7.49096 20.0098 6.43566C19.9891 6.40541 19.9686 6.37508 19.9483 6.34466C19.9189 6.29766 19.8882 6.25152 19.8564 6.20621C20.5442 6.14124 21.2412 6.10803 21.946 6.10803ZM36.5472 34.9066C35.906 34.9066 35.3862 35.4264 35.3862 36.0677C35.3862 36.7089 35.906 37.2287 36.5472 37.2287C37.1884 37.2287 37.7082 36.7089 37.7082 36.0677C37.7082 35.4264 37.1884 34.9066 36.5472 34.9066Z" fill="#9B9B9B"/>
<path d="M11.9762 19.909L8.66977 20.7672L6.58603 12.3793C7.48812 11.4952 8.46618 10.6883 9.50956 9.96945L11.9762 19.909Z" fill="#9B9B9B"/>
<circle cx="22.5899" cy="1.13579" r="1.13579" fill="#9B9B9B"/>
<path d="M56.7433 16H55.1966V12.3551H53.1552V16H51.6085V7.6866H53.1552V10.9904H55.1966V7.6866H56.7433V16ZM61.7811 16L61.5935 15.1869H61.5139C61.3736 15.475 61.1727 15.7024 60.9111 15.8692C60.6533 16.0322 60.3577 16.1137 60.0241 16.1137C59.4554 16.1137 59.0252 15.9204 58.7333 15.5337C58.4414 15.1471 58.2954 14.5689 58.2954 13.7994V9.66544H59.825V13.4355C59.825 13.898 59.88 14.2467 59.9899 14.4818C60.0999 14.7168 60.278 14.8343 60.5245 14.8343C60.8505 14.8343 61.0874 14.6713 61.2352 14.3453C61.3869 14.0193 61.4627 13.4715 61.4627 12.7019V9.66544H62.9923V16H61.7811ZM70.7823 16V12.2243C70.7823 11.2955 70.553 10.8311 70.0943 10.8311C69.7607 10.8311 69.5219 10.9979 69.3778 11.3315C69.2338 11.6613 69.1617 12.1921 69.1617 12.9237V16H67.6378V12.2243C67.6378 11.2955 67.4047 10.8311 66.9384 10.8311C66.6124 10.8311 66.3754 10.996 66.2276 11.3258C66.0798 11.6557 66.0058 12.1996 66.0058 12.9578V16H64.4933V9.66544H65.6931L65.8751 10.4786H65.9717C66.1234 10.1564 66.33 9.92133 66.5915 9.77348C66.8569 9.62185 67.1393 9.54603 67.4388 9.54603C68.2121 9.54603 68.7277 9.91185 68.9855 10.6435H69.0423C69.3646 9.91185 69.882 9.54603 70.5947 9.54603C71.1557 9.54603 71.5803 9.74315 71.8684 10.1374C72.1603 10.5317 72.3063 11.1079 72.3063 11.866V16H70.7823ZM76.8722 16L76.5708 15.1357H76.5367C76.313 15.5072 76.0818 15.7631 75.8429 15.9033C75.6041 16.0436 75.3027 16.1137 74.9388 16.1137C74.4725 16.1137 74.1048 15.9393 73.8357 15.5906C73.5703 15.2418 73.4376 14.7566 73.4376 14.1349C73.4376 13.4677 73.6196 12.973 73.9835 12.6508C74.3512 12.3247 74.899 12.1447 75.6269 12.1106L76.4684 12.0764V11.6215C76.4684 11.0302 76.2126 10.7345 75.7008 10.7345C75.3217 10.7345 74.8857 10.8823 74.3929 11.178L73.8698 10.1317C74.4991 9.73368 75.1833 9.53466 75.9226 9.53466C76.5935 9.53466 77.1034 9.72799 77.4522 10.1147C77.8047 10.4975 77.981 11.0415 77.981 11.7466V16H76.8722ZM75.5586 14.931C75.8354 14.931 76.0552 14.8078 76.2182 14.5614C76.385 14.3112 76.4684 13.9795 76.4684 13.5663V13.0317L76.0022 13.0545C75.6572 13.0734 75.4032 13.172 75.2402 13.3502C75.081 13.5283 75.0014 13.7937 75.0014 14.1463C75.0014 14.6694 75.1871 14.931 75.5586 14.931ZM82.5924 16V12.2243C82.5924 11.7656 82.5374 11.4187 82.4275 11.1837C82.3175 10.9487 82.1394 10.8311 81.893 10.8311C81.5669 10.8311 81.3281 10.9941 81.1765 11.3202C81.0248 11.6424 80.949 12.1883 80.949 12.9578V16H79.4365V9.66544H80.6363L80.8182 10.4786H80.9149C81.0514 10.1867 81.2466 9.95923 81.5006 9.79623C81.7546 9.62943 82.0522 9.54603 82.3934 9.54603C82.9696 9.54603 83.3998 9.74315 83.6841 10.1374C83.9723 10.5317 84.1163 11.1079 84.1163 11.866V16H82.5924ZM85.3386 13.5435V12.2129H88.1989V13.5435H85.3386ZM54.3664 19.9205C53.9229 19.9205 53.5722 20.1802 53.3144 20.6996C53.0604 21.2189 52.9334 21.9411 52.9334 22.866C52.9334 24.7918 53.4357 25.7547 54.4403 25.7547C54.8801 25.7547 55.3407 25.6144 55.8221 25.3339V26.71C55.4165 26.9792 54.8971 27.1137 54.264 27.1137C53.3277 27.1137 52.6074 26.7422 52.1032 25.9992C51.6028 25.2524 51.3527 24.2042 51.3527 22.8547C51.3527 21.5051 51.6104 20.4532 52.126 19.6988C52.6453 18.9444 53.3656 18.5672 54.2868 18.5672C54.5901 18.5672 54.8801 18.6089 55.1568 18.6923C55.4373 18.7757 55.7368 18.9216 56.0552 19.1301L55.5435 20.3868C55.3729 20.2693 55.1909 20.1631 54.9976 20.0684C54.8042 19.9698 54.5939 19.9205 54.3664 19.9205ZM61.8323 23.8213C61.8323 24.86 61.6124 25.6694 61.1727 26.2494C60.733 26.8256 60.1302 27.1137 59.3644 27.1137C58.8792 27.1137 58.4508 26.981 58.0793 26.7157C57.7078 26.4503 57.4216 26.0693 57.2207 25.5727C57.0198 25.0723 56.9193 24.4885 56.9193 23.8213C56.9193 22.794 57.1373 21.9922 57.5733 21.416C58.0092 20.836 58.6139 20.546 59.3872 20.546C60.134 20.546 60.7273 20.8417 61.167 21.4331C61.6105 22.0207 61.8323 22.8168 61.8323 23.8213ZM58.466 23.8213C58.466 24.481 58.538 24.9795 58.6821 25.3168C58.8261 25.6542 59.0574 25.8229 59.3758 25.8229C59.9824 25.8229 60.2856 25.1557 60.2856 23.8213C60.2856 23.1579 60.2117 22.6632 60.0639 22.3372C59.9198 22.0074 59.6905 21.8425 59.3758 21.8425C59.0574 21.8425 58.8261 22.0074 58.6821 22.3372C58.538 22.6632 58.466 23.1579 58.466 23.8213ZM69.4176 27V23.2243C69.4176 22.2955 69.1883 21.8311 68.7296 21.8311C68.396 21.8311 68.1572 21.9979 68.0131 22.3315C67.8691 22.6613 67.797 23.1921 67.797 23.9237V27H66.2731V23.2243C66.2731 22.2955 66.04 21.8311 65.5737 21.8311C65.2477 21.8311 65.0107 21.996 64.8629 22.3258C64.715 22.6557 64.6411 23.1996 64.6411 23.9578V27H63.1286V20.6654H64.3284L64.5103 21.4786H64.607C64.7586 21.1564 64.9652 20.9213 65.2268 20.7735C65.4922 20.6218 65.7746 20.546 66.0741 20.546C66.8474 20.546 67.363 20.9118 67.6208 21.6435H67.6776C67.9998 20.9118 68.5173 20.546 69.23 20.546C69.791 20.546 70.2156 20.7432 70.5037 21.1374C70.7956 21.5317 70.9416 22.1079 70.9416 22.866V27H69.4176ZM75.2288 27.1137C74.9559 27.1137 74.7133 27.0531 74.501 26.9318C74.2925 26.8067 74.0972 26.5887 73.9153 26.2778H73.8357C73.8963 26.7934 73.9267 27.1042 73.9267 27.2104V29.7977H72.4027V20.6654H73.5741L73.8357 21.49H73.9039C74.2186 20.8607 74.6754 20.546 75.2743 20.546C75.8505 20.546 76.3016 20.8322 76.6277 21.4047C76.9537 21.9733 77.1167 22.7789 77.1167 23.8213C77.1167 24.8487 76.948 25.6542 76.6106 26.238C76.2732 26.8218 75.8126 27.1137 75.2288 27.1137ZM74.7625 21.8311C74.4669 21.8311 74.2527 21.9695 74.12 22.2462C73.9911 22.5192 73.9229 22.9741 73.9153 23.611V23.81C73.9153 24.5075 73.9816 25.0155 74.1143 25.3339C74.247 25.6523 74.4669 25.8116 74.7739 25.8116C75.3046 25.8116 75.57 25.1406 75.57 23.7986C75.57 23.139 75.5037 22.6462 75.371 22.3202C75.2421 21.9941 75.0393 21.8311 74.7625 21.8311ZM81.8361 27L81.6484 26.1869H81.5688C81.4286 26.475 81.2277 26.7024 80.9661 26.8692C80.7083 27.0322 80.4126 27.1137 80.079 27.1137C79.5104 27.1137 79.0801 26.9204 78.7882 26.5337C78.4963 26.1471 78.3504 25.5689 78.3504 24.7994V20.6654H79.88V24.4355C79.88 24.898 79.935 25.2467 80.0449 25.4818C80.1548 25.7168 80.333 25.8343 80.5794 25.8343C80.9054 25.8343 81.1424 25.6713 81.2902 25.3453C81.4418 25.0193 81.5177 24.4715 81.5177 23.7019V20.6654H83.0473V27H81.8361ZM86.7488 25.8343C86.9611 25.8343 87.1905 25.7812 87.4369 25.6751V26.8578C87.1905 27.0284 86.8209 27.1137 86.3281 27.1137C85.7784 27.1137 85.3709 26.9507 85.1055 26.6247C84.8401 26.2949 84.7075 25.8021 84.7075 25.1463V21.8653H84.0933V21.1886L84.8837 20.6427L85.2704 19.3007H86.2371V20.6654H87.3857V21.8653H86.2371V25.1974C86.2371 25.622 86.4077 25.8343 86.7488 25.8343ZM90.8939 27.1137C90.1017 27.1137 89.4762 26.8332 89.0175 26.2722C88.5626 25.7073 88.3351 24.9093 88.3351 23.8782C88.3351 22.8319 88.5417 22.015 88.9549 21.4274C89.3681 20.8398 89.9443 20.546 90.6836 20.546C91.3735 20.546 91.9175 20.7981 92.3155 21.3023C92.7136 21.8027 92.9126 22.5059 92.9126 23.4119V24.2194H89.8704C89.8818 24.7842 89.9974 25.205 90.2173 25.4818C90.4371 25.7547 90.7404 25.8912 91.1271 25.8912C91.6199 25.8912 92.1241 25.7376 92.6396 25.4306V26.6759C92.1544 26.9678 91.5725 27.1137 90.8939 27.1137ZM90.6722 21.7117C90.4561 21.7117 90.2779 21.8273 90.1377 22.0586C89.9974 22.286 89.9159 22.6405 89.8932 23.1219H91.4285C91.4209 22.6594 91.3507 22.3088 91.2181 22.07C91.0854 21.8311 90.9034 21.7117 90.6722 21.7117ZM96.8473 20.546C97.033 20.546 97.215 20.5745 97.3932 20.6313L97.2169 22.0984C97.1108 22.0605 96.9724 22.0415 96.8018 22.0415C96.4341 22.0415 96.1517 22.1875 95.9545 22.4794C95.7574 22.7675 95.6589 23.1883 95.6589 23.7417V27H94.1463V20.6654H95.3916L95.5622 21.6549H95.6134C95.7802 21.2568 95.9621 20.9725 96.1592 20.8019C96.3564 20.6313 96.5857 20.546 96.8473 20.546ZM51.8872 38V29.6866H53.3429V38H51.8872ZM58.3978 38V34.2243C58.3978 33.7656 58.3428 33.4187 58.2329 33.1837C58.1229 32.9487 57.9448 32.8311 57.6984 32.8311C57.3723 32.8311 57.1335 32.9941 56.9819 33.3202C56.8302 33.6424 56.7544 34.1883 56.7544 34.9578V38H55.2419V31.6654H56.4417L56.6236 32.4786H56.7203C56.8568 32.1867 57.052 31.9592 57.306 31.7962C57.56 31.6294 57.8576 31.546 58.1988 31.546C58.775 31.546 59.2052 31.7432 59.4895 32.1374C59.7777 32.5317 59.9217 33.1079 59.9217 33.866V38H58.3978ZM63.5778 36.8343C63.7901 36.8343 64.0194 36.7812 64.2658 36.6751V37.8578C64.0194 38.0284 63.6498 38.1137 63.157 38.1137C62.6073 38.1137 62.1998 37.9507 61.9344 37.6247C61.6691 37.2949 61.5364 36.8021 61.5364 36.1463V32.8653H60.9223V32.1886L61.7127 31.6427L62.0993 30.3007H63.066V31.6654H64.2146V32.8653H63.066V36.1974C63.066 36.622 63.2366 36.8343 63.5778 36.8343ZM67.7229 38.1137C66.9306 38.1137 66.3051 37.8332 65.8464 37.2722C65.3915 36.7073 65.164 35.9093 65.164 34.8782C65.164 33.8319 65.3706 33.015 65.7838 32.4274C66.1971 31.8398 66.7733 31.546 67.5125 31.546C68.2024 31.546 68.7464 31.7981 69.1445 32.3023C69.5425 32.8027 69.7415 33.5059 69.7415 34.4119V35.2194H66.6993C66.7107 35.7842 66.8263 36.205 67.0462 36.4818C67.2661 36.7547 67.5693 36.8912 67.956 36.8912C68.4488 36.8912 68.953 36.7376 69.4686 36.4306V37.6759C68.9833 37.9678 68.4014 38.1137 67.7229 38.1137ZM67.5011 32.7117C67.285 32.7117 67.1069 32.8273 66.9666 33.0586C66.8263 33.286 66.7448 33.6405 66.7221 34.1219H68.2574C68.2498 33.6594 68.1797 33.3088 68.047 33.07C67.9143 32.8311 67.7324 32.7117 67.5011 32.7117ZM73.6762 31.546C73.862 31.546 74.0439 31.5745 74.2221 31.6313L74.0458 33.0984C73.9397 33.0605 73.8013 33.0415 73.6307 33.0415C73.263 33.0415 72.9806 33.1875 72.7835 33.4794C72.5863 33.7675 72.4878 34.1883 72.4878 34.7417V38H70.9752V31.6654H72.2205L72.3911 32.6549H72.4423C72.6091 32.2568 72.7911 31.9725 72.9882 31.8019C73.1853 31.6313 73.4147 31.546 73.6762 31.546ZM78.2364 38L77.9351 37.1357H77.9009C77.6773 37.5072 77.446 37.7631 77.2072 37.9033C76.9684 38.0436 76.667 38.1137 76.3031 38.1137C75.8368 38.1137 75.4691 37.9393 75.1999 37.5906C74.9346 37.2418 74.8019 36.7566 74.8019 36.1349C74.8019 35.4677 74.9839 34.973 75.3478 34.6508C75.7155 34.3247 76.2633 34.1447 76.9911 34.1106L77.8327 34.0764V33.6215C77.8327 33.0302 77.5768 32.7345 77.065 32.7345C76.686 32.7345 76.25 32.8823 75.7572 33.178L75.2341 32.1317C75.8633 31.7337 76.5476 31.5347 77.2868 31.5347C77.9578 31.5347 78.4677 31.728 78.8164 32.1147C79.169 32.4975 79.3453 33.0415 79.3453 33.7466V38H78.2364ZM76.9229 36.931C77.1996 36.931 77.4195 36.8078 77.5825 36.5614C77.7493 36.3112 77.8327 35.9795 77.8327 35.5663V35.0317L77.3664 35.0545C77.0215 35.0734 76.7675 35.172 76.6045 35.3502C76.4452 35.5283 76.3656 35.7937 76.3656 36.1463C76.3656 36.6694 76.5514 36.931 76.9229 36.931ZM82.8933 38.1137C82.1389 38.1137 81.5646 37.8389 81.1703 37.2892C80.7761 36.7395 80.579 35.9321 80.579 34.8668C80.579 33.7523 80.7647 32.9202 81.1362 32.3705C81.5115 31.8209 82.0896 31.546 82.8706 31.546C83.1056 31.546 83.352 31.5801 83.6098 31.6484C83.8676 31.7166 84.0988 31.8152 84.3035 31.9441L83.8713 33.1211C83.5567 32.9354 83.2781 32.8425 83.0355 32.8425C82.7132 32.8425 82.4801 33.0112 82.336 33.3486C82.1958 33.6822 82.1256 34.1845 82.1256 34.8555C82.1256 35.5113 82.1958 36.0022 82.336 36.3282C82.4763 36.6504 82.7056 36.8116 83.0241 36.8116C83.4032 36.8116 83.7993 36.6789 84.2125 36.4135V37.7441C83.8145 37.9905 83.3747 38.1137 82.8933 38.1137ZM87.5558 36.8343C87.7681 36.8343 87.9975 36.7812 88.2439 36.6751V37.8578C87.9975 38.0284 87.6279 38.1137 87.1351 38.1137C86.5854 38.1137 86.1779 37.9507 85.9125 37.6247C85.6471 37.2949 85.5145 36.8021 85.5145 36.1463V32.8653H84.9003V32.1886L85.6907 31.6427L86.0774 30.3007H87.0441V31.6654H88.1927V32.8653H87.0441V36.1974C87.0441 36.622 87.2147 36.8343 87.5558 36.8343ZM90.8878 38H89.3752V31.6654H90.8878V38ZM89.3127 30.0107C89.3127 29.7605 89.3847 29.5634 89.5288 29.4193C89.6766 29.2715 89.8813 29.1976 90.1429 29.1976C90.3893 29.1976 90.5864 29.2715 90.7343 29.4193C90.8821 29.5634 90.956 29.7605 90.956 30.0107C90.956 30.2685 90.8802 30.4694 90.7286 30.6135C90.577 30.7537 90.3817 30.8239 90.1429 30.8239C89.8927 30.8239 89.6918 30.7537 89.5401 30.6135C89.3885 30.4694 89.3127 30.2685 89.3127 30.0107ZM97.1084 34.8213C97.1084 35.86 96.8885 36.6694 96.4488 37.2494C96.0091 37.8256 95.4063 38.1137 94.6405 38.1137C94.1553 38.1137 93.7269 37.981 93.3554 37.7157C92.9839 37.4503 92.6977 37.0693 92.4968 36.5727C92.2959 36.0723 92.1954 35.4885 92.1954 34.8213C92.1954 33.794 92.4134 32.9922 92.8494 32.416C93.2853 31.836 93.89 31.546 94.6633 31.546C95.4101 31.546 96.0034 31.8417 96.4431 32.4331C96.8866 33.0207 97.1084 33.8168 97.1084 34.8213ZM93.7421 34.8213C93.7421 35.481 93.8141 35.9795 93.9582 36.3168C94.1022 36.6542 94.3335 36.8229 94.6519 36.8229C95.2585 36.8229 95.5617 36.1557 95.5617 34.8213C95.5617 34.1579 95.4878 33.6632 95.34 33.3372C95.1959 33.0074 94.9666 32.8425 94.6519 32.8425C94.3335 32.8425 94.1022 33.0074 93.9582 33.3372C93.8141 33.6632 93.7421 34.1579 93.7421 34.8213ZM101.561 38V34.2243C101.561 33.7656 101.506 33.4187 101.396 33.1837C101.286 32.9487 101.108 32.8311 100.861 32.8311C100.535 32.8311 100.296 32.9941 100.145 33.3202C99.993 33.6424 99.9172 34.1883 99.9172 34.9578V38H98.4047V31.6654H99.6045L99.7864 32.4786H99.8831C100.02 32.1867 100.215 31.9592 100.469 31.7962C100.723 31.6294 101.02 31.546 101.362 31.546C101.938 31.546 102.368 31.7432 102.652 32.1374C102.94 32.5317 103.085 33.1079 103.085 33.866V38H101.561ZM51.8872 49V40.6866H53.3429V49H51.8872ZM58.3978 49V45.2243C58.3978 44.7656 58.3428 44.4187 58.2329 44.1837C58.1229 43.9487 57.9448 43.8311 57.6984 43.8311C57.3723 43.8311 57.1335 43.9941 56.9819 44.3202C56.8302 44.6424 56.7544 45.1883 56.7544 45.9578V49H55.2419V42.6654H56.4417L56.6236 43.4786H56.7203C56.8568 43.1867 57.052 42.9592 57.306 42.7962C57.56 42.6294 57.8576 42.546 58.1988 42.546C58.775 42.546 59.2052 42.7432 59.4895 43.1374C59.7777 43.5317 59.9217 44.1079 59.9217 44.866V49H58.3978ZM64.7776 47.1463C64.7776 47.7642 64.5956 48.2475 64.2317 48.5963C63.8716 48.9412 63.339 49.1137 62.6339 49.1137C62.0084 49.1137 61.4909 48.9905 61.0815 48.7441V47.4306C61.29 47.5746 61.5326 47.694 61.8093 47.7888C62.0899 47.8836 62.3363 47.931 62.5486 47.931C62.7836 47.931 62.9618 47.8741 63.0831 47.7604C63.2082 47.6429 63.2707 47.4893 63.2707 47.2998C63.2707 47.1065 63.2063 46.9378 63.0774 46.7937C62.9485 46.6497 62.7116 46.4734 62.3666 46.2649C61.9079 45.9919 61.5781 45.7019 61.3772 45.3949C61.18 45.084 61.0815 44.7182 61.0815 44.2974C61.0815 43.7591 61.2653 43.3326 61.6331 43.018C62.0046 42.7033 62.5125 42.546 63.157 42.546C63.718 42.546 64.2469 42.6939 64.7435 42.9896L64.2488 44.0756C63.8431 43.8558 63.4868 43.7458 63.1797 43.7458C62.9864 43.7458 62.8405 43.797 62.7419 43.8994C62.6471 44.0017 62.5997 44.1268 62.5997 44.2747C62.5997 44.4453 62.6585 44.5969 62.776 44.7296C62.8973 44.8623 63.121 45.0272 63.447 45.2243C63.8412 45.4631 64.118 45.6659 64.2772 45.8327C64.4364 45.9995 64.5596 46.1891 64.6468 46.4014C64.734 46.6136 64.7776 46.8619 64.7776 47.1463ZM68.1664 47.8343C68.3787 47.8343 68.608 47.7812 68.8545 47.6751V48.8578C68.608 49.0284 68.2384 49.1137 67.7456 49.1137C67.1959 49.1137 66.7884 48.9507 66.5231 48.6247C66.2577 48.2949 66.125 47.8021 66.125 47.1463V43.8653H65.5109V43.1886L66.3013 42.6427L66.688 41.3007H67.6546V42.6654H68.8033V43.8653H67.6546V47.1974C67.6546 47.622 67.8252 47.8343 68.1664 47.8343ZM71.4984 49H69.9858V42.6654H71.4984V49ZM69.9233 41.0107C69.9233 40.7605 69.9953 40.5634 70.1393 40.4193C70.2872 40.2715 70.4919 40.1976 70.7535 40.1976C70.9999 40.1976 71.197 40.2715 71.3448 40.4193C71.4927 40.5634 71.5666 40.7605 71.5666 41.0107C71.5666 41.2685 71.4908 41.4694 71.3392 41.6135C71.1875 41.7537 70.9923 41.8239 70.7535 41.8239C70.5033 41.8239 70.3023 41.7537 70.1507 41.6135C69.9991 41.4694 69.9233 41.2685 69.9233 41.0107ZM75.2284 47.8343C75.4407 47.8343 75.67 47.7812 75.9164 47.6751V48.8578C75.67 49.0284 75.3004 49.1137 74.8076 49.1137C74.2579 49.1137 73.8504 48.9507 73.585 48.6247C73.3197 48.2949 73.187 47.8021 73.187 47.1463V43.8653H72.5729V43.1886L73.3633 42.6427L73.7499 41.3007H74.7166V42.6654H75.8652V43.8653H74.7166V47.1974C74.7166 47.622 74.8872 47.8343 75.2284 47.8343ZM80.4596 49L80.2719 48.1869H80.1923C80.052 48.475 79.8511 48.7024 79.5895 48.8692C79.3318 49.0322 79.0361 49.1137 78.7025 49.1137C78.1338 49.1137 77.7036 48.9204 77.4117 48.5337C77.1198 48.1471 76.9738 47.5689 76.9738 46.7994V42.6654H78.5035V46.4355C78.5035 46.898 78.5584 47.2467 78.6684 47.4818C78.7783 47.7168 78.9565 47.8343 79.2029 47.8343C79.5289 47.8343 79.7658 47.6713 79.9137 47.3453C80.0653 47.0193 80.1411 46.4715 80.1411 45.7019V42.6654H81.6707V49H80.4596ZM85.3723 47.8343C85.5846 47.8343 85.8139 47.7812 86.0603 47.6751V48.8578C85.8139 49.0284 85.4443 49.1137 84.9515 49.1137C84.4018 49.1137 83.9943 48.9507 83.729 48.6247C83.4636 48.2949 83.3309 47.8021 83.3309 47.1463V43.8653H82.7168V43.1886L83.5072 42.6427L83.8939 41.3007H84.8605V42.6654H86.0092V43.8653H84.8605V47.1974C84.8605 47.622 85.0311 47.8343 85.3723 47.8343ZM89.5174 49.1137C88.7251 49.1137 88.0996 48.8332 87.6409 48.2722C87.186 47.7073 86.9586 46.9093 86.9586 45.8782C86.9586 44.8319 87.1652 44.015 87.5784 43.4274C87.9916 42.8398 88.5678 42.546 89.307 42.546C89.9969 42.546 90.5409 42.7981 90.939 43.3023C91.337 43.8027 91.536 44.5059 91.536 45.4119V46.2194H88.4939C88.5052 46.7842 88.6209 47.205 88.8407 47.4818C89.0606 47.7547 89.3639 47.8912 89.7505 47.8912C90.2434 47.8912 90.7475 47.7376 91.2631 47.4306V48.6759C90.7779 48.9678 90.196 49.1137 89.5174 49.1137ZM89.2956 43.7117C89.0796 43.7117 88.9014 43.8273 88.7611 44.0586C88.6209 44.286 88.5394 44.6405 88.5166 45.1219H90.0519C90.0443 44.6594 89.9742 44.3088 89.8415 44.07C89.7088 43.8311 89.5269 43.7117 89.2956 43.7117Z" fill="#9B9B9B"/>
</svg>
