<svg preserveAspectRatio="none" width="100%" height="100%" overflow="visible" style="display: block;" viewBox="0 0 26.6327 24.9604" fill="none" xmlns="http://www.w3.org/2000/svg">
<g id="Group 5">
<circle id="Ellipse 6" cx="23.7248" cy="22.0525" r="2.90788" fill="var(--fill-0, #F2F0EF)"/>
<path id="Rectangle 17" d="M19.3747 2.12942C19.9967 0.828303 21.3106 4.28157e-05 22.7527 4.28157e-05H26.6327L15.7195 22.831C15.0975 24.1321 13.7836 24.9604 12.3415 24.9604H8.46153L19.3747 2.12942Z" fill="var(--fill-0, #F2F0EF)"/>
<path id="Union" d="M6.24009 11.3553C6.24009 11.4882 6.42018 11.529 6.47749 11.4091L10.9132 2.12938C11.5351 0.82826 12.8491 0 14.2912 0H18.1711L7.28059 22.7836C6.64481 24.1136 5.30164 24.9603 3.82742 24.9603C1.7136 24.9604 0 23.2468 0 21.1329V3.74405C0 1.67627 1.67627 0 3.74406 0H6.24009V11.3553Z" fill="var(--fill-0, #F2F0EF)"/>
</g>
</svg>
