<svg width="109" height="19" viewBox="0 0 109 19" fill="none" xmlns="http://www.w3.org/2000/svg">
<path d="M5.23633 18.1036H0V0.296717H9.05613L19.4454 13.5906V0.296717H24.6817V18.1036H15.8091L5.23633 4.58279V18.1036ZM49.7356 12.5976C49.7356 15.0728 49.2981 15.9258 48.573 16.7447C47.4619 17.9636 45.8463 18.3298 42.7315 18.3298H33.791C30.6762 18.3298 29.0585 17.9632 27.9484 16.7447C27.2247 15.9265 26.7862 15.0728 26.7862 12.5976V5.73317C26.7862 3.25833 27.2247 2.4057 27.9484 1.58608C29.0585 0.366206 30.6765 0 33.791 0H42.7318C45.8463 0 47.4623 0.366554 48.573 1.58608C49.2978 2.40536 49.7356 3.25798 49.7356 5.73317V12.5976ZM42.5115 13.8175C43.7074 13.8175 44.1292 13.7477 44.4155 13.4867C44.6844 13.2428 44.8029 12.9291 44.8029 11.8829V6.44717C44.8029 5.40137 44.6844 5.08936 44.4155 4.84441C44.1292 4.58279 43.7074 4.51365 42.5115 4.51365H34.0103C32.8144 4.51365 32.3929 4.58279 32.1073 4.84441C31.8377 5.08936 31.7199 5.40171 31.7199 6.44717V11.8829C31.7199 12.9287 31.8373 13.2428 32.1073 13.4867C32.3929 13.7477 32.8144 13.8175 34.0103 13.8175H42.5115ZM57.3453 0.296717V18.1036H51.8741V0.296717H57.3453ZM66.5891 0.296717H73.8121L64.0638 8.62599L75.0587 18.1036H67.3295L57.3453 8.81674L66.5891 0.296717ZM76.068 0.296717H81.541V18.1036H76.068V0.296717ZM102.403 18.1036L100.784 15.0016H90.1958L88.5962 18.1036H82.5513L92.2502 0.29637H99.0514L108.75 18.1036H102.403ZM92.097 11.1338H98.9007L95.4981 4.68702L92.097 11.1338Z" fill="#9B9B9B"/>
</svg>
