<svg width="52" height="51" viewBox="0 0 52 51" fill="none" xmlns="http://www.w3.org/2000/svg">
<path d="M32.917 48.8877C32.917 49.1573 32.9802 49.4116 33.0908 49.6387C30.8972 50.2676 28.5803 50.6064 26.1846 50.6064L25.5391 50.5986C23.6793 50.5515 21.8703 50.3001 20.1328 49.8682C20.1996 49.6847 20.2393 49.4878 20.2393 49.2812C20.2393 49.1843 20.2283 49.0896 20.2129 48.9971C22.1228 49.4831 24.1234 49.7421 26.1846 49.7422C28.5229 49.7422 30.7835 49.4083 32.9219 48.7881C32.92 48.821 32.917 48.8543 32.917 48.8877ZM2.99902 32.3477C5.08684 39.532 10.4216 45.3342 17.3105 48.0586C17.1029 48.2639 16.9483 48.5218 16.8662 48.8105C9.86544 45.9971 4.43163 40.11 2.23633 32.8184C2.56049 32.7933 2.83923 32.611 2.99902 32.3477ZM49.4209 32.1758C49.6454 32.3579 49.9207 32.4787 50.2227 32.5146C48.1689 39.6649 43.0133 45.5025 36.3037 48.4746C36.2319 48.1835 36.0866 47.9224 35.8877 47.7109C42.4285 44.8368 47.451 39.1477 49.4209 32.1758ZM2.09961 23.918C2.06146 24.4729 2.04103 25.033 2.04102 25.5977C2.04102 27.4496 2.24972 29.253 2.64453 30.9854C2.50153 30.904 2.33642 30.8575 2.16016 30.8574C2.01453 30.8574 1.87626 30.8894 1.75195 30.9463C1.37647 29.223 1.17676 27.4335 1.17676 25.5977C1.17677 25.0335 1.19758 24.4738 1.23438 23.9189C1.37224 23.9558 1.51654 23.9775 1.66602 23.9775C1.81619 23.9775 1.96117 23.9551 2.09961 23.918ZM26.1846 0.589844C39.9961 0.589844 51.1931 11.7862 51.1934 25.5977L51.1855 26.2432C51.1579 27.334 51.0585 28.4072 50.8955 29.459C50.7427 29.4094 50.5795 29.3828 50.4102 29.3828C50.2769 29.3828 50.1479 29.4005 50.0244 29.4316C50.2237 28.1829 50.3291 26.9025 50.3291 25.5977C50.3288 12.2635 39.5188 1.4541 26.1846 1.4541C25.5987 1.45412 25.0178 1.47555 24.4424 1.5166C24.5194 1.37208 24.5645 1.20745 24.5645 1.03223C24.5644 0.896103 24.5372 0.766435 24.4893 0.647461C25.0495 0.609937 25.6148 0.589861 26.1846 0.589844ZM7.63184 8.83008C7.79996 9.07593 8.08299 9.2373 8.40332 9.2373C8.41314 9.2373 8.42287 9.23566 8.43262 9.23535C5.48346 12.4334 3.38842 16.43 2.50684 20.8643C2.26083 20.7206 1.97519 20.6374 1.66992 20.6367C2.57303 16.1499 4.67665 12.0979 7.63184 8.83008ZM22.5156 0.858398C22.506 0.914917 22.501 0.972975 22.501 1.03223C22.501 1.28614 22.593 1.5185 22.7451 1.69824C17.5623 2.43763 12.9104 4.82269 9.33496 8.30762C9.33497 8.30636 9.33594 8.30497 9.33594 8.30371C9.33589 7.97379 9.16465 7.68454 8.90625 7.51855C12.5611 4.02455 17.2742 1.62919 22.5156 0.858398Z" fill="#F2F0EF"/>
<circle cx="1.67046" cy="22.3064" r="1.23839" stroke="#F2F0EF" stroke-width="0.864129"/>
<circle cx="18.5204" cy="49.2806" r="1.28753" stroke="#F2F0EF" stroke-width="0.864129"/>
<circle cx="34.6376" cy="48.8868" r="1.28753" stroke="#F2F0EF" stroke-width="0.864129"/>
<circle cx="50.412" cy="30.954" r="1.14013" stroke="#F2F0EF" stroke-width="0.864129"/>
<circle cx="23.5308" cy="1.03175" r="0.599689" stroke="#F2F0EF" stroke-width="0.864129"/>
<circle cx="8.39736" cy="8.30312" r="0.501427" stroke="#F2F0EF" stroke-width="0.864129"/>
<circle cx="1.67046" cy="22.3064" r="1.23839" stroke="#F2F0EF" stroke-width="0.864129"/>
<circle cx="2.16133" cy="31.8388" r="0.550558" stroke="#F2F0EF" stroke-width="0.864129"/>
<circle cx="18.5204" cy="49.2806" r="1.28753" stroke="#F2F0EF" stroke-width="0.864129"/>
<circle cx="34.6376" cy="48.8868" r="1.28753" stroke="#F2F0EF" stroke-width="0.864129"/>
<circle cx="50.412" cy="30.954" r="1.14013" stroke="#F2F0EF" stroke-width="0.864129"/>
<circle cx="23.5308" cy="1.03175" r="0.599689" stroke="#F2F0EF" stroke-width="0.864129"/>
<circle cx="8.39736" cy="8.30312" r="0.501427" stroke="#F2F0EF" stroke-width="0.864129"/>
<path d="M10.5957 27.2017C11.5111 35.0796 18.2056 41.1948 26.3291 41.1948C26.8995 41.1948 27.4627 41.1628 28.0176 41.104C27.9435 41.2421 27.9024 41.4002 27.9023 41.5679C27.9023 41.7135 27.9344 41.8518 27.9912 41.9761C27.4445 42.0301 26.8901 42.0591 26.3291 42.0591L25.8975 42.0532C17.5568 41.8418 10.7354 35.5168 9.74707 27.3921C9.81822 27.4076 9.89197 27.4175 9.96777 27.4175C10.2045 27.4175 10.4216 27.3358 10.5957 27.2017ZM40.0498 33.272C40.1604 33.5604 40.4033 33.7822 40.7041 33.8657C38.3701 37.7991 34.4683 40.6912 29.8594 41.6831C29.8638 41.6454 29.8672 41.6067 29.8672 41.5679C29.8671 41.2904 29.7514 41.0404 29.5664 40.8618C34.0447 39.9316 37.8293 37.1114 40.0498 33.272ZM41.96 19.4517C42.6533 21.2869 43.0342 23.276 43.0342 25.354L43.0283 25.7847C42.9709 28.0504 42.4611 30.2036 41.5879 32.1587C41.4188 32.0207 41.203 31.9381 40.9678 31.938C40.884 31.938 40.8023 31.9485 40.7246 31.9683C41.6511 29.9552 42.1699 27.7153 42.1699 25.354C42.1699 23.33 41.7886 21.3951 41.0967 19.6157C41.1822 19.64 41.2728 19.6538 41.3662 19.6538C41.5898 19.6537 41.7949 19.5775 41.96 19.4517ZM15.624 12.5288C15.767 12.7861 15.9787 12.9989 16.2334 13.146C12.7238 16.0516 10.4883 20.4418 10.4883 25.354C10.4883 25.4016 10.4888 25.4491 10.4893 25.4966C10.3361 25.4065 10.1583 25.354 9.96777 25.354C9.84724 25.354 9.73155 25.3746 9.62402 25.4126V25.354C9.62402 20.2012 11.9567 15.5932 15.624 12.5288ZM34.123 10.5757C37.1437 12.1721 39.6151 14.6675 41.1826 17.7056C40.875 17.7636 40.6186 17.9651 40.4844 18.2378C38.9903 15.2717 36.5915 12.8401 33.6504 11.3042C33.8701 11.1124 34.0367 10.8621 34.123 10.5757ZM26.7598 8.65479C28.3122 8.69412 29.812 8.94526 31.2314 9.38037C31.1132 9.60115 31.0459 9.85364 31.0459 10.1216C31.0459 10.1577 31.0494 10.1935 31.0518 10.229C29.5602 9.76371 27.9739 9.51324 26.3291 9.51318C23.5403 9.51318 20.9197 10.2342 18.6436 11.4995C18.5986 11.2008 18.4737 10.9285 18.2891 10.7065C20.6741 9.39463 23.4148 8.64893 26.3291 8.64893L26.7598 8.65479Z" fill="#F2F0EF"/>
<circle cx="17.0467" cy="11.8392" r="1.28753" stroke="#F2F0EF" stroke-width="0.864129"/>
<circle cx="9.97023" cy="26.3833" r="0.599689" stroke="#F2F0EF" stroke-width="0.864129"/>
<circle cx="28.8869" cy="41.5661" r="0.550558" stroke="#F2F0EF" stroke-width="0.864129"/>
<circle cx="40.9768" cy="32.9184" r="0.550558" stroke="#F2F0EF" stroke-width="0.864129"/>
<circle cx="41.2212" cy="18.7183" r="0.599689" stroke="#F2F0EF" stroke-width="0.864129"/>
<circle cx="32.6702" cy="10.0705" r="1.18926" stroke="#F2F0EF" stroke-width="0.864129"/>
<path d="M33.6914 20.2046C34.7512 21.7032 35.375 23.5323 35.375 25.5073L35.3633 25.98C35.1171 30.8382 31.1 34.7014 26.1807 34.7017L25.707 34.6899C22.2662 34.5155 19.3261 32.4487 17.9023 29.5103C18.2104 29.4608 18.472 29.2763 18.625 29.0181C19.95 31.8641 22.8344 33.8374 26.1807 33.8374C30.7813 33.8371 34.5105 30.1079 34.5107 25.5073C34.5107 23.6631 33.9099 21.9598 32.8955 20.5796C32.9035 20.5798 32.9119 20.5815 32.9199 20.5815C33.2335 20.5814 33.5116 20.4335 33.6914 20.2046ZM26.6533 16.3237C28.8745 16.4363 30.8859 17.3394 32.417 18.7544C32.1577 18.909 31.9756 19.1796 31.9424 19.4946C30.446 18.0601 28.4173 17.1764 26.1807 17.1763C21.5797 17.1763 17.8497 20.9064 17.8496 25.5073C17.8496 26.2039 17.9366 26.8802 18.0977 27.5269C17.9857 27.4852 17.8647 27.4615 17.7383 27.4614C17.5518 27.4614 17.3766 27.5116 17.2256 27.5981C17.1038 27.0744 17.0251 26.5338 16.9971 25.98L16.9854 25.5073C16.9854 20.4292 21.1025 16.312 26.1807 16.312L26.6533 16.3237Z" fill="#F2F0EF"/>
<circle cx="17.7359" cy="28.4939" r="0.599689" stroke="#F2F0EF" stroke-width="0.864129"/>
<circle cx="32.9172" cy="19.6013" r="0.550558" stroke="#F2F0EF" stroke-width="0.864129"/>
</svg>
