<svg width="116" height="23" viewBox="0 0 116 23" fill="none" xmlns="http://www.w3.org/2000/svg">
<g clip-path="url(#clip0_205_7823)">
<path d="M14.0218 11.3677C14.0218 14.7839 13.5241 17.3812 8.33419 17.3812C3.14429 17.3812 2.37364 14.8882 2.37364 11.3677V3.05793C2.37364 1.18724 1.57488 1.01463 0.202148 1.01463V0.516846H6.76076V1.01463C5.41613 1.01463 4.58928 1.18724 4.58928 3.06195V11.3677C4.58928 13.9128 5.18734 16.4057 8.43052 16.4057C12.0269 16.4057 12.5969 14.3343 12.5969 11.3677V3.05793C12.5969 1.18724 11.7741 1.01061 10.4294 1.01061V0.516846H16.1893V1.01463C14.8165 1.01463 14.0178 1.18724 14.0178 3.06195V11.3677H14.0218Z" fill="#9B9B9B"/>
<path d="M27.8166 16.7064C26.5924 17.156 25.1956 17.3808 23.3532 17.3808C18.364 17.3808 15.9678 13.5872 15.9678 8.27622C15.9678 3.65971 17.4609 0.267578 22.8033 0.267578C24.7982 0.267578 26.4961 0.664999 27.5959 0.966076L27.8206 4.88409H27.1985C26.8734 3.48709 25.8779 1.23905 22.7793 1.23905C18.7654 1.23905 18.4403 5.50631 18.4403 8.0755C18.4403 11.295 19.1387 16.2608 24.6015 16.2608C26.2713 16.2608 27.1704 15.8874 27.8206 15.6386V16.7104L27.8166 16.7064Z" fill="#9B9B9B"/>
<path d="M41.2152 4.1053C40.9905 2.78458 39.991 1.23504 37.3218 1.23504C35.648 1.23504 34.179 2.30687 34.179 3.95677C34.179 6.17671 37.1492 6.8993 39.3207 8.17185C41.2915 9.31995 42.6121 10.3436 42.6121 12.7121C42.6121 15.8794 39.8666 17.3768 36.4508 17.3768C34.757 17.3768 32.7862 17.0034 32.16 16.9031L31.9834 13.3865H32.6096C32.8062 14.7072 33.9823 16.2568 36.6515 16.2568C38.8471 16.2568 40.268 14.8357 40.268 13.1135C40.268 10.4199 36.1257 9.59694 33.8057 7.82661C32.7099 6.97958 32.1841 6.08037 32.1841 4.48265C32.1841 1.48794 34.6566 0.267578 37.7954 0.267578C39.4692 0.267578 40.5409 0.468296 41.6648 0.689086L41.8374 4.1053H41.2152Z" fill="#9B9B9B"/>
<path d="M52.8075 17.1515C52.5426 17.2197 51.9846 17.3522 51.1899 17.3522C49.9015 17.3522 49.5242 16.6858 49.5242 15.7344H49.48C48.7977 16.734 47.8424 17.3522 46.3291 17.3522C44.8159 17.3522 43.668 16.2884 43.668 14.8432C43.668 11.6237 47.8424 11.6237 49.5242 11.4672V10.6241C49.5242 9.07059 49.5001 7.42872 47.6377 7.42872C46.2609 7.42872 46.0843 8.00679 46.0843 8.71733C46.0843 9.62457 45.418 9.86945 45.0407 9.86945C44.4426 9.86945 43.977 9.46801 43.977 8.86987C43.977 7.42872 46.1285 6.69409 47.6617 6.69409C50.7002 6.69409 51.2541 8.15933 51.2541 10.2227V15.7264C51.2541 16.5052 51.519 16.7701 52.2094 16.7701C52.4061 16.7701 52.6068 16.726 52.8075 16.6818V17.1475V17.1515ZM49.5242 12.2018C48.4806 12.2259 45.6388 12.4266 45.6388 14.49C45.6388 15.6421 46.3974 16.4209 47.152 16.4209C48.593 16.4209 49.5242 15.0239 49.5242 13.5145V12.2058V12.2018Z" fill="#9B9B9B"/>
<path d="M53.2979 16.7499C54.2291 16.7499 54.9837 16.5532 54.9837 15.1081V9.05041C54.9837 7.71764 53.9401 7.65341 53.2979 7.60926V7.23191L56.7136 6.698V9.62848H56.7578C57.0668 8.80553 58.0663 6.698 60.2619 6.698C62.614 6.698 62.8388 7.98259 62.8388 10.05V15.1121C62.8388 16.5532 63.5934 16.754 64.5246 16.754V17.1313H59.423V16.754C60.3542 16.754 61.1088 16.5573 61.1088 15.1121V10.5397C61.1088 8.6289 61.0887 7.76582 59.6197 7.76582C58.3152 7.76582 56.7136 10.2748 56.7136 12.3823V15.1121C56.7136 16.5532 57.4642 16.754 58.3994 16.754V17.1313H53.2979V16.754V16.7499Z" fill="#9B9B9B"/>
<path d="M67.0605 16.6305C68.4092 16.6305 69.232 16.4538 69.232 14.5872V3.05793C69.232 1.18724 68.4092 1.01061 67.0605 1.01061V0.516846H72.9007C77.039 0.516846 81.4301 1.41606 81.4301 8.85065C81.4301 16.2852 76.8182 17.1363 72.9007 17.1363H67.0605V16.6345V16.6305ZM71.4517 14.0613C71.4517 15.8838 71.6524 16.1568 72.9007 16.1568C77.1915 16.1568 78.9616 13.8606 78.9616 8.84664C78.9616 4.25421 77.641 1.48832 72.9007 1.48832C71.6524 1.48832 71.4517 1.63685 71.4517 3.58381V14.0613Z" fill="#9B9B9B"/>
<path d="M82.3369 16.7497C83.2721 16.7497 84.0267 16.553 84.0267 15.1078V9.05013C84.0267 7.71736 83.0072 7.65313 82.3369 7.60898V7.23163L85.7567 6.69772V15.1078C85.7567 16.5489 86.5113 16.7497 87.4425 16.7497V17.127H82.3369V16.7497ZM83.5611 3.38989C83.5611 2.67935 84.115 2.12537 84.8255 2.12537C85.5359 2.12537 86.0899 2.67935 86.0899 3.38989C86.0899 4.10043 85.5359 4.65441 84.8255 4.65441C84.115 4.65441 83.5611 4.10043 83.5611 3.38989Z" fill="#9B9B9B"/>
<path d="M95.4744 16.9507C94.9406 17.1514 94.186 17.3521 92.8333 17.3521C89.3934 17.3521 87.4668 15.4654 87.4668 11.736C87.4668 8.49643 88.7753 6.698 91.9703 6.698C93.9652 6.698 95.7674 7.80596 95.7674 10.3792V10.8689H89.3091C89.3091 12.7316 90.2163 16.5292 93.9251 16.5292C94.4348 16.5292 95.0329 16.4609 95.4784 16.2401V16.9507H95.4744ZM93.7886 10.1383C93.7886 8.9621 93.3872 7.43263 91.6813 7.43263C89.9754 7.43263 89.3051 9.31937 89.3051 10.1383H93.7886Z" fill="#9B9B9B"/>
<path d="M102.977 15.3527C104.04 15.3527 106.505 15.3969 106.505 17.8617C106.505 20.3265 104.02 21.8118 101.066 21.8118C98.8906 21.8118 96.6309 20.9889 96.6309 18.9937C96.6309 17.6168 97.6504 17.0187 98.3608 16.6614C97.9835 16.4406 97.4055 16.0191 97.4055 15.0878C97.4055 14.2648 98.116 13.4218 98.3608 13.1569C97.8471 12.7354 97.0724 12.069 97.0724 10.1822C97.0724 7.32 99.1556 6.69778 101.263 6.69778C102.286 6.69778 102.84 6.87441 103.551 7.25176C103.904 6.40874 104.434 4.87927 105.79 4.87927C106.413 4.87927 106.858 5.27669 106.858 5.94308C106.858 6.54523 106.481 6.94265 105.815 6.94265C105.237 6.94265 105.104 6.62953 104.815 6.62953C104.329 6.62953 104.129 7.27584 104.016 7.62911C104.281 7.91814 105.012 8.74108 105.012 10.2946C105.012 12.5347 103.615 13.7992 100.954 13.7992C100.067 13.7992 99.4205 13.6868 98.9348 13.466C98.7983 13.6426 98.5334 13.9758 98.5334 14.4656C98.5334 15.3527 99.6412 15.3527 100.352 15.3527H102.973H102.977ZM99.1355 16.9264C98.69 17.2595 98.0718 17.6369 98.0718 18.6365C98.0718 19.9452 99.2439 21.0772 101.175 21.0772C103.105 21.0772 105.06 20.0335 105.06 18.4358C105.06 17.3037 104.129 16.9264 103.017 16.9264H99.1355ZM101.066 13.0645C102.933 13.0645 103.173 11.5993 103.173 10.4231C103.173 8.76115 102.595 7.42839 100.998 7.42839C99.2439 7.42839 98.9147 8.717 98.9147 10.0016C98.9147 11.6876 99.4686 13.0645 101.066 13.0645Z" fill="#9B9B9B"/>
<path d="M106.529 12.025C106.529 8.69313 108.323 6.698 111.165 6.698C114.007 6.698 115.805 8.69313 115.805 12.025C115.805 15.357 114.011 17.3521 111.165 17.3521C108.319 17.3521 106.529 15.357 106.529 12.025ZM111.165 16.6175C113.385 16.6175 113.83 13.8676 113.83 12.025C113.83 10.1825 113.385 7.42861 111.165 7.42861C108.946 7.42861 108.504 10.1784 108.504 12.025C108.504 13.8717 108.946 16.6175 111.165 16.6175Z" fill="#9B9B9B"/>
</g>
<defs>
<clipPath id="clip0_205_7823">
<rect width="116" height="22.079" fill="white"/>
</clipPath>
</defs>
</svg>
