<svg width="1512" height="281" viewBox="0 0 1512 281" fill="none" xmlns="http://www.w3.org/2000/svg">
<g clip-path="url(#clip0_215_8115)">
<circle cx="268.859" cy="291.235" r="27.716" fill="url(#paint0_linear_215_8115)"/>
<path d="M227.405 101.343C233.333 88.9413 245.856 81.0469 259.602 81.0469H296.583L192.565 298.657C186.637 311.058 174.114 318.953 160.368 318.953H123.387L227.405 101.343Z" fill="url(#paint1_linear_215_8115)"/>
<path d="M102.205 189.278C102.205 190.545 103.922 190.934 104.468 189.791L146.747 101.343C152.675 88.9413 165.198 81.0469 178.943 81.0469H215.925L112.123 298.205C106.063 310.882 93.2608 318.953 79.2095 318.953C59.0619 318.953 42.729 302.62 42.729 282.472V116.733C42.729 97.024 58.7061 81.0469 78.4149 81.0469H102.205V189.278Z" fill="url(#paint2_linear_215_8115)"/>
<path d="M438.418 291L406.953 100.077H444.818L462.417 215.271L464.817 239.536H466.95L477.616 215.271L536.813 100.077H577.61L477.616 291H438.418ZM612.306 295.266C600.04 295.266 589.197 292.689 579.775 287.534C570.531 282.378 563.331 275.001 558.176 265.401C553.021 255.802 550.443 244.425 550.443 231.27C550.443 219.715 552.31 208.871 556.043 198.738C559.776 188.428 565.198 179.362 572.309 171.54C579.419 163.718 588.13 157.585 598.441 153.141C608.751 148.697 620.395 146.475 633.372 146.475C645.993 146.475 656.482 148.786 664.837 153.407C673.192 158.029 679.414 164.34 683.503 172.34C687.769 180.339 689.902 189.583 689.902 200.072C689.902 204.516 689.369 209.404 688.302 214.737C687.413 219.893 686.258 224.604 684.836 228.87H576.575L580.841 204.071H656.571C657.637 198.205 657.104 193.139 654.971 188.872C652.838 184.428 649.549 180.962 645.105 178.473C640.66 175.984 635.239 174.74 628.839 174.74C619.062 174.74 610.795 177.406 604.04 182.739C597.463 187.895 592.485 194.65 589.108 203.005C585.73 211.182 584.041 219.804 584.041 228.87C584.041 236.159 585.286 242.469 587.774 247.802C590.263 253.135 593.819 257.224 598.441 260.068C603.063 262.913 608.484 264.335 614.706 264.335C620.217 264.335 625.106 263.535 629.372 261.935C633.816 260.157 637.638 257.757 640.838 254.735C644.038 251.535 646.527 247.891 648.304 243.803L678.17 252.069C674.436 261.135 669.548 268.957 663.504 275.534C657.46 281.934 650.171 286.822 641.638 290.2C633.283 293.578 623.506 295.266 612.306 295.266ZM697.885 291L734.15 84.0779H769.081L732.817 291H697.885ZM765.186 291L801.45 84.0779H836.382L800.117 291H765.186ZM832.486 291L857.018 150.741H891.95L867.418 291H832.486ZM882.883 126.742C876.661 126.742 871.328 124.52 866.884 120.076C862.44 115.632 860.218 110.299 860.218 104.077C860.218 97.855 862.44 92.5219 866.884 88.0777C871.328 83.6335 876.661 81.4114 882.883 81.4114C889.105 81.4114 894.438 83.6335 898.882 88.0777C903.327 92.5219 905.549 97.855 905.549 104.077C905.549 110.299 903.327 115.632 898.882 120.076C894.438 124.52 889.105 126.742 882.883 126.742ZM961.383 295.266C949.651 295.266 939.34 292.689 930.452 287.534C921.563 282.2 914.63 274.912 909.653 265.668C904.675 256.424 902.186 245.669 902.186 233.403C902.186 221.315 903.964 210.027 907.52 199.538C911.253 189.05 916.675 179.806 923.785 171.806C930.896 163.807 939.607 157.585 949.917 153.141C960.406 148.697 972.405 146.475 985.915 146.475C996.937 146.475 1006.45 148.341 1014.45 152.074C1022.62 155.807 1029.11 161.229 1033.91 168.34C1038.71 175.451 1041.38 184.161 1041.91 194.472L1006.98 199.805C1006.27 195.183 1004.67 191.361 1002.18 188.339C999.692 185.139 996.492 182.739 992.582 181.139C988.848 179.539 984.582 178.739 979.782 178.739C971.605 178.739 964.316 181.05 957.917 185.672C951.695 190.294 946.717 196.427 942.984 204.071C939.429 211.715 937.651 220.159 937.651 229.403C937.651 236.692 938.807 242.825 941.118 247.802C943.606 252.78 946.895 256.602 950.984 259.268C955.25 261.757 960.139 263.002 965.65 263.002C970.805 263.002 975.516 262.113 979.782 260.335C984.049 258.557 987.782 255.891 990.982 252.335C994.181 248.78 996.848 244.425 998.981 239.269L1033.38 247.002C1027.69 262.113 1019.16 273.934 1007.78 282.467C996.581 291 981.115 295.266 961.383 295.266ZM1047.29 291L1083.56 84.0779H1118.49L1107.55 146.475L1101.42 168.073H1103.55C1106.75 163.274 1110.49 159.274 1114.75 156.074C1119.2 152.874 1124.18 150.474 1129.69 148.874C1135.2 147.274 1141.15 146.475 1147.55 146.475C1158.75 146.475 1167.91 149.052 1175.02 154.207C1182.13 159.185 1187.02 166.118 1189.68 175.006C1192.53 183.717 1192.97 193.583 1191.02 204.605L1175.82 291H1140.89L1155.29 208.338C1156.35 202.116 1155.91 196.872 1153.95 192.605C1152 188.161 1149.06 184.784 1145.15 182.473C1141.24 180.162 1136.8 179.006 1131.82 179.006C1125.24 179.006 1119.46 180.606 1114.49 183.806C1109.51 186.828 1105.33 191.272 1101.95 197.138C1098.75 202.827 1096.44 209.76 1095.02 217.937L1082.22 291H1047.29ZM1270.78 295.266C1258.87 295.266 1248.2 292.511 1238.78 287C1229.53 281.312 1222.25 273.579 1216.91 263.801C1211.76 254.024 1209.18 242.914 1209.18 230.47C1209.18 218.737 1211.05 207.805 1214.78 197.672C1218.69 187.539 1224.2 178.651 1231.31 171.007C1238.6 163.185 1247.31 157.141 1257.44 152.874C1267.58 148.608 1278.95 146.475 1291.58 146.475C1303.66 146.475 1314.33 149.319 1323.57 155.007C1332.82 160.518 1340.02 168.162 1345.17 177.939C1350.51 187.717 1353.17 198.827 1353.17 211.271C1353.17 223.004 1351.22 233.936 1347.31 244.069C1343.57 254.202 1338.06 263.179 1330.77 271.001C1323.66 278.645 1315.04 284.6 1304.91 288.867C1294.78 293.133 1283.4 295.266 1270.78 295.266ZM1274.51 262.735C1280.91 262.735 1286.78 261.49 1292.11 259.002C1297.44 256.513 1302.06 253.047 1305.97 248.602C1309.89 243.98 1312.82 238.736 1314.77 232.87C1316.91 227.003 1317.97 220.693 1317.97 213.938C1317.97 206.471 1316.64 200.161 1313.97 195.005C1311.31 189.85 1307.66 185.939 1303.04 183.273C1298.6 180.428 1293.53 179.006 1287.84 179.006C1279.31 179.006 1271.75 181.228 1265.18 185.672C1258.6 189.939 1253.44 195.805 1249.71 203.271C1246.16 210.56 1244.38 218.737 1244.38 227.803C1244.38 235.092 1245.71 241.403 1248.38 246.736C1251.04 251.891 1254.69 255.891 1259.31 258.735C1263.93 261.402 1269 262.735 1274.51 262.735ZM1363.65 291L1388.45 150.741H1421.25L1418.32 167.007H1420.45C1424.36 160.607 1429.6 155.63 1436.18 152.074C1442.94 148.341 1450.58 146.475 1459.11 146.475C1462.49 146.475 1465.16 146.652 1467.11 147.008C1469.25 147.363 1471.11 147.897 1472.71 148.608L1466.58 182.739C1463.74 181.673 1461.07 180.784 1458.58 180.073C1456.09 179.362 1452.63 179.006 1448.18 179.006C1441.96 179.006 1436.36 180.428 1431.38 183.273C1426.41 186.117 1422.32 190.205 1419.12 195.539C1415.92 200.872 1413.61 207.182 1412.18 214.471L1398.58 291H1363.65Z" fill="url(#paint3_linear_215_8115)"/>
</g>
<defs>
<linearGradient id="paint0_linear_215_8115" x1="268.859" y1="12.1123" x2="268.859" y2="318.951" gradientUnits="userSpaceOnUse">
<stop offset="0.223524" stop-color="#D0E5FF"/>
<stop offset="1" stop-color="#222222"/>
</linearGradient>
<linearGradient id="paint1_linear_215_8115" x1="209.985" y1="81.0469" x2="209.985" y2="318.953" gradientUnits="userSpaceOnUse">
<stop offset="0.223524" stop-color="#D0E5FF"/>
<stop offset="1" stop-color="#222222"/>
</linearGradient>
<linearGradient id="paint2_linear_215_8115" x1="129.327" y1="81.0469" x2="129.327" y2="318.953" gradientUnits="userSpaceOnUse">
<stop offset="0.223524" stop-color="#D0E5FF"/>
<stop offset="1" stop-color="#222222"/>
</linearGradient>
<linearGradient id="paint3_linear_215_8115" x1="925.621" y1="0" x2="925.621" y2="400" gradientUnits="userSpaceOnUse">
<stop offset="0.223524" stop-color="#D0E5FF"/>
<stop offset="1" stop-color="#222222"/>
</linearGradient>
<clipPath id="clip0_215_8115">
<rect width="1512" height="281" fill="white"/>
</clipPath>
</defs>
</svg>
